<?xml version="1.0" encoding="UTF-8"?>
<svg width="391px" height="278px" viewBox="0 0 391 278" version="1.1" xmlns="http://www.w3.org/2000/svg" xmlns:xlink="http://www.w3.org/1999/xlink">
    <!-- Generator: Sketch 52.6 (67491) - http://www.bohemiancoding.com/sketch -->
    <title>Cart</title>
    <desc>Created with Sketch.</desc>
    <defs>
        <rect id="path-1" x="0" y="0" width="570" height="358"></rect>
    </defs>
    <g id="Main" stroke="none" stroke-width="1" fill="none" fill-rule="evenodd">
        <g id="000-Home" transform="translate(-234.000000, -1500.000000)">
            <g id="Buy-&amp;-Sell" transform="translate(0.000000, 1170.000000)">
                <g id="Buy" transform="translate(55.000000, 250.000000)">
                    <g id="Cart">
                        <mask id="mask-2" fill="white">
                            <use xlink:href="#path-1"></use>
                        </mask>
                        <g id="Mask" fill-rule="nonzero"></g>
                        <path d="M334.279877,344.168838 C334.461553,345.437637 334.555556,346.734689 334.555556,348.053674 C334.555556,363.072423 322.367752,375.247525 307.333333,375.247525 C292.298915,375.247525 280.111111,363.072423 280.111111,348.053674 C280.111111,346.734689 280.205113,345.437637 280.38679,344.168838 L245.222222,344.168838 C243.013083,344.168838 241.222222,342.377977 241.222222,340.168838 L241.222222,103.309015 L190.666667,103.309015 C184.223345,103.309015 179,98.0911143 179,91.6545076 C179,85.2179008 184.223345,80 190.666667,80 L260.555556,80 C262.764695,80 264.555556,81.790861 264.555556,84 L264.555556,320.859823 L587.333333,320.859823 C593.776655,320.859823 599,326.077724 599,332.51433 C599,338.950937 593.776655,344.168838 587.333333,344.168838 L559.835432,344.168838 C560.017109,345.437637 560.111111,346.734689 560.111111,348.053674 C560.111111,363.072423 547.923307,375.247525 532.888889,375.247525 C517.854471,375.247525 505.666667,363.072423 505.666667,348.053674 C505.666667,346.734689 505.760669,345.437637 505.942346,344.168838 L334.279877,344.168838 Z M303.752475,281.683168 L552.217822,281.683168 L552.217822,126.782178 L303.752475,126.782178 L303.752475,281.683168 Z M295.380928,103.910891 L559.549766,103.910891 C568.131908,103.910891 575.089109,110.856786 575.089109,119.424981 L575.089109,305.594059 L279.841584,305.594059 L279.841584,119.424981 C279.841584,110.856786 286.798785,103.910891 295.380928,103.910891 Z M380.683168,126.782178 L474.247525,126.782178 L474.247525,183.487849 C474.247525,186.619616 470.756676,189.158416 466.450495,189.158416 L388.480198,189.158416 C384.174017,189.158416 380.683168,186.619616 380.683168,183.487849 L380.683168,126.782178 Z M404.594059,126.782178 L404.594059,165.247525 L451.376238,165.247525 L451.376238,126.782178 L404.594059,126.782178 Z" fill="#49B24D" mask="url(#mask-2)"></path>
                    </g>
                </g>
            </g>
        </g>
    </g>
</svg>