<?xml version="1.0" encoding="UTF-8"?>
<svg width="330px" height="263px" viewBox="0 0 330 263" version="1.1" xmlns="http://www.w3.org/2000/svg" xmlns:xlink="http://www.w3.org/1999/xlink">
    <!-- Generator: Sketch 52.6 (67491) - http://www.bohemiancoding.com/sketch -->
    <title>Shelves</title>
    <desc>Created with Sketch.</desc>
    <g id="Main" stroke="none" stroke-width="1" fill="none" fill-rule="evenodd">
        <g id="000-Home" transform="translate(-897.000000, -1515.000000)" fill="#49B24D">
            <g id="Buy-&amp;-Sell" transform="translate(0.000000, 1170.000000)">
                <g id="Sell" transform="translate(657.000000, 250.000000)">
                    <g id="Shelves">
                        <path d="M575.625,363.615385 L262.375,363.615385 L262.375,374.807692 C262.375,380.989033 257.366186,386 251.1875,386 C245.008814,386 240,380.989033 240,374.807692 L240,106.192308 C240,100.010967 245.008814,95 251.1875,95 C257.366186,95 262.375,100.010967 262.375,106.192308 L262.375,199.461538 L575.625,199.461538 L575.625,106.192308 C575.625,100.010967 580.633814,95 586.8125,95 C592.991186,95 598,100.010967 598,106.192308 L598,374.807692 C598,380.989033 592.991186,386 586.8125,386 C580.633814,386 575.625,380.989033 575.625,374.807692 L575.625,363.615385 Z M575,341 L575,221 L262,221 L262,341 L575,341 Z M486,163 L538,163 L538,118 L486,118 L486,163 Z M561,102.416667 L561,176.583333 C561,180.679445 557.659355,184 553.538462,184 L471.461538,184 C467.340645,184 464,180.679445 464,176.583333 L464,102.416667 C464,98.3205548 467.340645,95 471.461538,95 L553.538462,95 C557.659355,95 561,98.3205548 561,102.416667 Z M371,304 L423,304 L423,259 L371,259 L371,304 Z M445,244.416667 L445,318.583333 C445,322.679445 441.659355,326 437.538462,326 L355.461538,326 C351.340645,326 348,322.679445 348,318.583333 L348,244.416667 C348,240.320555 351.340645,237 355.461538,237 L437.538462,237 C441.659355,237 445,240.320555 445,244.416667 Z M483,304 L535,304 L535,259 L483,259 L483,304 Z M557,244.416667 L557,318.583333 C557,322.679445 553.659355,326 549.538462,326 L467.461538,326 C463.340645,326 460,322.679445 460,318.583333 L460,244.416667 C460,240.320555 463.340645,237 467.461538,237 L549.538462,237 C553.659355,237 557,240.320555 557,244.416667 Z" transform="translate(419.000000, 240.500000) scale(-1, 1) translate(-419.000000, -240.500000) "></path>
                    </g>
                </g>
            </g>
        </g>
    </g>
</svg>