<?xml version="1.0" encoding="UTF-8"?>
<svg width="16px" height="16px" viewBox="0 0 16 16" version="1.1" xmlns="http://www.w3.org/2000/svg" xmlns:xlink="http://www.w3.org/1999/xlink">
    <!-- Generator: Sketch 52.5 (67469) - http://www.bohemiancoding.com/sketch -->
    <title>Calendar</title>
    <desc>Created with Sketch.</desc>
    <g id="Main" stroke="none" stroke-width="1" fill="none" fill-rule="evenodd">
        <g id="000-Home" transform="translate(-687.000000, -2470.000000)" fill="#4C4C4C">
            <g id="Orders" transform="translate(0.000000, 1890.000000)">
                <g id="2" transform="translate(455.000000, 268.000000)">
                    <path d="M234.5,314 L233.254947,314 C233.112692,314 233,314.111071 233,314.248084 L233,316 L247,316 L247,314.248084 C247,314.112386 246.885856,314 246.745053,314 L245.5,314 L245.5,314.504611 C245.5,314.778207 245.278323,315 244.995316,315 L244.004684,315 C243.725955,315 243.5,314.774512 243.5,314.504611 L243.5,314 L236.5,314 L236.5,314.504611 C236.5,314.778207 236.278323,315 235.995316,315 L235.004684,315 C234.725955,315 234.5,314.774512 234.5,314.504611 L234.5,314 Z M236.5,313 L243.5,313 L243.5,312.495389 C243.5,312.221793 243.721677,312 244.004684,312 L244.995316,312 C245.274045,312 245.5,312.225488 245.5,312.495389 L245.5,313 L246.999128,313 C247.551894,313 248,313.44892 248,313.995809 L248,327.004191 C248,327.554161 247.555369,328 246.999128,328 L233.000872,328 C232.448106,328 232,327.55108 232,327.004191 L232,313.995809 C232,313.445839 232.444631,313 233.000872,313 L234.5,313 L234.5,312.495389 C234.5,312.221793 234.721677,312 235.004684,312 L235.995316,312 C236.274045,312 236.5,312.225488 236.5,312.495389 L236.5,313 Z M247,316.5 L233,316.5 L233,326.751916 C233,326.887614 233.114144,327 233.254947,327 L246.745053,327 C246.887308,327 247,326.888929 247,326.751916 L247,316.5 Z M244,324 L245,324 L245,325 L244,325 L244,324 Z M241,324 L242,324 L242,325 L241,325 L241,324 Z M238,324 L239,324 L239,325 L238,325 L238,324 Z M235,324 L236,324 L236,325 L235,325 L235,324 Z M244,321 L245,321 L245,322 L244,322 L244,321 Z M241,321 L242,321 L242,322 L241,322 L241,321 Z M238,321 L239,321 L239,322 L238,322 L238,321 Z M235,321 L236,321 L236,322 L235,322 L235,321 Z M244,318 L245,318 L245,319 L244,319 L244,318 Z M241,318 L242,318 L242,319 L241,319 L241,318 Z M238,318 L239,318 L239,319 L238,319 L238,318 Z M235,318 L236,318 L236,319 L235,319 L235,318 Z M244,312.5 L244,314.5 L245,314.5 L245,312.5 L244,312.5 Z M235,312.5 L235,314.5 L236,314.5 L236,312.5 L235,312.5 Z" id="Calendar"></path>
                </g>
            </g>
        </g>
    </g>
</svg>