<?xml version="1.0" encoding="UTF-8"?>
<svg width="24px" height="24px" viewBox="0 0 24 24" version="1.1" xmlns="http://www.w3.org/2000/svg" xmlns:xlink="http://www.w3.org/1999/xlink">
    <!-- Generator: Sketch 52.5 (67469) - http://www.bohemiancoding.com/sketch -->
    <title>Calendar gray</title>
    <desc>Created with Sketch.</desc>
    <g id="Symbols" stroke="none" stroke-width="1" fill="none" fill-rule="evenodd">
        <g id="Icon/-Calendar" fill="#ADADAD">
            <path d="M3.75,3 L1.88242082,3 C1.66903831,3 1.5,3.16660645 1.5,3.37212592 L1.5,6 L22.5,6 L22.5,3.37212592 C22.5,3.16857862 22.3287844,3 22.1175792,3 L20.25,3 L20.25,3.75691652 C20.25,4.1673102 19.9174851,4.5 19.4929733,4.5 L18.0070267,4.5 C17.5889324,4.5 17.25,4.16176862 17.25,3.75691652 L17.25,3 L6.75,3 L6.75,3.75691652 C6.75,4.1673102 6.41748512,4.5 5.99297333,4.5 L4.50702667,4.5 C4.08893239,4.5 3.75,4.16176862 3.75,3.75691652 L3.75,3 Z M6.75,1.5 L17.25,1.5 L17.25,0.743083477 C17.25,0.332689805 17.5825149,0 18.0070267,0 L19.4929733,0 C19.9110676,0 20.25,0.338231385 20.25,0.743083477 L20.25,1.5 L22.4986925,1.5 C23.3278417,1.5 24,2.17338031 24,2.99371277 L24,22.5062872 C24,23.331242 23.3330537,24 22.4986925,24 L1.50130749,24 C0.672158257,24 0,23.3266197 0,22.5062872 L0,2.99371277 C0,2.16875799 0.666946292,1.5 1.50130749,1.5 L3.75,1.5 L3.75,0.743083477 C3.75,0.332689805 4.08251488,0 4.50702667,0 L5.99297333,0 C6.41106761,0 6.75,0.338231385 6.75,0.743083477 L6.75,1.5 Z M22.5,6.75 L1.5,6.75 L1.5,22.1278741 C1.5,22.3314214 1.67121563,22.5 1.88242082,22.5 L22.1175792,22.5 C22.3309617,22.5 22.5,22.3333935 22.5,22.1278741 L22.5,6.75 Z M18,18 L19.5,18 L19.5,19.5 L18,19.5 L18,18 Z M13.5,18 L15,18 L15,19.5 L13.5,19.5 L13.5,18 Z M9,18 L10.5,18 L10.5,19.5 L9,19.5 L9,18 Z M4.5,18 L6,18 L6,19.5 L4.5,19.5 L4.5,18 Z M18,13.5 L19.5,13.5 L19.5,15 L18,15 L18,13.5 Z M13.5,13.5 L15,13.5 L15,15 L13.5,15 L13.5,13.5 Z M9,13.5 L10.5,13.5 L10.5,15 L9,15 L9,13.5 Z M4.5,13.5 L6,13.5 L6,15 L4.5,15 L4.5,13.5 Z M18,9 L19.5,9 L19.5,10.5 L18,10.5 L18,9 Z M13.5,9 L15,9 L15,10.5 L13.5,10.5 L13.5,9 Z M9,9 L10.5,9 L10.5,10.5 L9,10.5 L9,9 Z M4.5,9 L6,9 L6,10.5 L4.5,10.5 L4.5,9 Z M18,0.75 L18,3.75 L19.5,3.75 L19.5,0.75 L18,0.75 Z M4.5,0.75 L4.5,3.75 L6,3.75 L6,0.75 L4.5,0.75 Z" id="Calendar-gray"></path>
        </g>
    </g>
</svg>