<?xml version="1.0" encoding="UTF-8"?>
<svg width="13px" height="13px" viewBox="0 0 13 13" version="1.1" xmlns="http://www.w3.org/2000/svg" xmlns:xlink="http://www.w3.org/1999/xlink">
    <!-- Generator: Sketch 52.5 (67469) - http://www.bohemiancoding.com/sketch -->
    <title>Clip</title>
    <desc>Created with Sketch.</desc>
    <g id="Main" stroke="none" stroke-width="1" fill="none" fill-rule="evenodd">
        <g id="100-Orders" transform="translate(-694.000000, -531.000000)" fill="#FD8A25" fill-rule="nonzero">
            <g id="item" transform="translate(55.000000, 260.000000)">
                <g id="Attach-file" transform="translate(639.000000, 270.000000)">
                    <path d="M2.3053478,14 C1.68903909,14 1.1099294,13.7389309 0.674380957,13.2655635 C-0.224793652,12.2880201 -0.224793652,10.6973781 0.674380957,9.7199496 L7.80453685,1.96889287 C8.37896692,1.34380997 9.14351651,1 9.9563693,1 C10.7693543,1 11.5338774,1.34380997 12.1083339,1.96889287 C12.6833192,2.59380333 13,3.424402 13,4.30796746 C13,5.19170535 12.6836894,6.02227528 12.1088098,6.64681213 L6.49582932,12.7477075 C6.32731009,12.9308065 6.05441152,12.9308065 5.88597161,12.7477075 C5.71745238,12.564551 5.71745238,12.2679025 5.88597161,12.0846885 L11.4988199,5.98379316 C11.9108116,5.53603263 12.1373899,4.94081001 12.1373899,4.30796746 C12.1373899,3.67523986 11.9103357,3.07964363 11.4984498,2.63182562 C11.0864581,2.18406508 10.5388896,1.93765309 9.9563693,1.93765309 C9.37395479,1.93765309 8.82638627,2.18406508 8.41439456,2.63182562 L1.28431798,10.3828823 C0.721626621,10.9950612 0.721626621,11.9905094 1.28431798,12.6025445 C1.83014156,13.1950657 2.7804483,13.1950657 3.32624543,12.6025445 L8.11402636,7.39768758 C8.24420971,7.25617456 8.31879282,7.06028651 8.31879282,6.86060485 C8.31879282,6.65813547 8.24595465,6.46727683 8.11365622,6.32349339 C7.84157724,6.02773577 7.39804436,6.02684485 7.12596539,6.32349339 L3.85612657,9.87830393 C3.6877131,10.0615179 3.41468234,10.0615179 3.24626886,9.87830393 C3.07774963,9.69520493 3.07774963,9.39844144 3.24626886,9.21539992 L6.51600192,5.66058938 C7.12422044,4.99946721 8.11450225,4.99946721 8.72354036,5.66058938 C9.01883237,5.98149401 9.18137649,6.40781492 9.18137649,6.86063359 C9.18137649,7.30744573 9.01460221,7.74471636 8.72398982,8.06062033 L3.9362089,13.2655635 C3.50066045,13.7389309 2.92152432,14 2.3053478,14 Z" id="Clip"></path>
                </g>
            </g>
        </g>
    </g>
</svg>