<?xml version="1.0" encoding="UTF-8"?>
<svg width="20px" height="20px" viewBox="0 0 20 20" version="1.1" xmlns="http://www.w3.org/2000/svg" xmlns:xlink="http://www.w3.org/1999/xlink">
    <!-- Generator: Sketch 52.5 (67469) - http://www.bohemiancoding.com/sketch -->
    <title>Cross</title>
    <desc>Created with Sketch.</desc>
    <g id="Main" stroke="none" stroke-width="1" fill="none" fill-rule="evenodd">
        <g id="100-Orders" transform="translate(-820.000000, -275.000000)" fill="#A5A5A5">
            <g id="item" transform="translate(55.000000, 260.000000)">
                <path d="M776.218456,25 L784.747649,16.4708067 C785.084117,16.1343393 785.084117,15.5888179 784.747649,15.2523505 C784.411182,14.9158832 783.865661,14.9158832 783.529193,15.2523505 L775,23.7815438 L766.470807,15.2523505 C766.134339,14.9158832 765.588818,14.9158832 765.252351,15.2523505 C764.915883,15.5888179 764.915883,16.1343393 765.252351,16.4708067 L773.781544,25 L765.252351,33.5291933 C764.915883,33.8656607 764.915883,34.4111821 765.252351,34.7476495 C765.588818,35.0841168 766.134339,35.0841168 766.470807,34.7476495 L775,26.2184562 L783.529193,34.7476495 C783.865661,35.0841168 784.411182,35.0841168 784.747649,34.7476495 C785.084117,34.4111821 785.084117,33.8656607 784.747649,33.5291933 L776.218456,25 Z" id="Cross"></path>
            </g>
        </g>
    </g>
</svg>