<?xml version="1.0" encoding="UTF-8"?>
<svg width="16px" height="11px" viewBox="0 0 16 11" version="1.1" xmlns="http://www.w3.org/2000/svg" xmlns:xlink="http://www.w3.org/1999/xlink">
    <!-- Generator: Sketch 52.5 (67469) - http://www.bohemiancoding.com/sketch -->
    <title>Eye</title>
    <desc>Created with Sketch.</desc>
    <g id="Symbols" stroke="none" stroke-width="1" fill="none" fill-rule="evenodd">
        <g id="Icon/Eye" transform="translate(-4.000000, -7.000000)" fill="#A5A5A5" fill-rule="nonzero">
            <g id="Eye">
                <path d="M14.4989506,8.549438 C15.1181622,9.1807995 15.5,10.0458085 15.5,11 C15.5,12.9329965 13.9329966,14.5 12,14.5 C10.0670034,14.5 8.5,12.9329965 8.5,11 C8.5,10.0458085 8.88183785,9.1807995 9.50104935,8.549438 C8.00543195,9.2258805 6.57485805,10.5324865 5.20524785,12.5 C7.3198387,15.5377155 9.57975095,17 12,17 C14.4202491,17 16.6801613,15.5377155 18.794752,12.5 C17.425142,10.5324865 15.994568,9.2258805 14.4989506,8.549438 Z M12,18 C9.05448135,18 6.38781465,16.1666665 4,12.5 C6.38781465,8.8333335 9.05448135,7 12,7 C14.9455186,7 17.6121855,8.8333335 20,12.5 C17.6121855,16.1666665 14.9455186,18 12,18 Z M12,14 C13.6568543,14 15,12.656854 15,11 C15,9.343146 13.6568543,8 12,8 C10.3431457,8 9,9.343146 9,11 C9,12.656854 10.3431457,14 12,14 Z"></path>
            </g>
        </g>
    </g>
</svg>