<?xml version="1.0" encoding="UTF-8"?>
<svg width="16px" height="16px" viewBox="0 0 16 16" version="1.1" xmlns="http://www.w3.org/2000/svg" xmlns:xlink="http://www.w3.org/1999/xlink">
    <!-- Generator: Sketch 52.5 (67469) - http://www.bohemiancoding.com/sketch -->
    <title>Shop</title>
    <desc>Created with Sketch.</desc>
    <g id="Main" stroke="none" stroke-width="1" fill="none" fill-rule="evenodd">
        <g id="000-Home" transform="translate(-483.000000, -2470.000000)" fill="#4C4C4C" fill-rule="nonzero">
            <g id="Orders" transform="translate(0.000000, 1890.000000)">
                <g id="2" transform="translate(455.000000, 268.000000)">
                    <path d="M35,327 L42,327 L42,319.5 C41.1666667,319.5 40.6666667,319 40.5,318 C40.3333333,319 39.8333333,319.5 39,319.5 C38.1666667,319.5 37.6666667,319 37.5,318 C37.3333333,319 36.8333333,319.5 36,319.5 C35.1666667,319.5 34.6666667,319 34.5,318 C34.3333333,319 33.8333333,319.5 33,319.5 C32.1666667,319.5 31.6666667,319 31.5,318 C31.3333333,319 30.8333333,319.5 30,319.5 L30,327 L31,327 L31,321 C31,320.723858 31.2238576,320.5 31.5,320.5 L34.5,320.5 C34.7761424,320.5 35,320.723858 35,321 L35,327 Z M43,319.783061 L43,327 C43,327.552285 42.5522847,328 42,328 L30,328 C29.4477153,328 29,327.552285 29,327 L29,319.783061 C28.3284206,319.446233 28,318.756965 28,318 L28,317 C28,316.915028 28.0216553,316.831458 28.0629214,316.757179 L30.5629214,312.257179 C30.6511061,312.098446 30.8184164,312 31,312 L41,312 C41.1815836,312 41.3488939,312.098446 41.4370786,312.257179 L43.9370786,316.757179 C43.9783447,316.831458 44,316.915028 44,317 L44,318 C44,318.756965 43.6715794,319.446233 43,319.783061 Z M31.2942017,313 L29,317.129563 L29,318 C29,318.575566 29.2971037,319 30,319 C30.569757,319 30.8777723,318.691985 31.006803,317.917801 C31.0996476,317.360733 31.9003524,317.360733 31.993197,317.917801 C32.1222277,318.691985 32.430243,319 33,319 C33.569757,319 33.8777723,318.691985 34.006803,317.917801 C34.0996476,317.360733 34.9003524,317.360733 34.993197,317.917801 C35.1222277,318.691985 35.430243,319 36,319 C36.569757,319 36.8777723,318.691985 37.006803,317.917801 C37.0996476,317.360733 37.9003524,317.360733 37.993197,317.917801 C38.1222277,318.691985 38.430243,319 39,319 C39.569757,319 39.8777723,318.691985 40.006803,317.917801 C40.0996476,317.360733 40.9003524,317.360733 40.993197,317.917801 C41.1222277,318.691985 41.430243,319 42,319 C42.7028963,319 43,318.575566 43,318 L43,317.129563 L40.7057983,313 L31.2942017,313 Z M36.5,320.5 L40.5,320.5 C40.7761424,320.5 41,320.723858 41,321 L41,325 C41,325.276142 40.7761424,325.5 40.5,325.5 L36.5,325.5 C36.2238576,325.5 36,325.276142 36,325 L36,321 C36,320.723858 36.2238576,320.5 36.5,320.5 Z M36.5,321 L36.5,325 L40.5,325 L40.5,321 L36.5,321 Z M31.5,321 L31.5,327 L34.5,327 L34.5,321 L31.5,321 Z" id="Shop"></path>
                </g>
            </g>
        </g>
    </g>
</svg>