<?xml version="1.0" encoding="UTF-8"?>
<svg width="20px" height="17px" viewBox="0 0 20 17" version="1.1" xmlns="http://www.w3.org/2000/svg" xmlns:xlink="http://www.w3.org/1999/xlink">
    <!-- Generator: Sketch 52.5 (67469) - http://www.bohemiancoding.com/sketch -->
    <title>Shape</title>
    <desc>Created with Sketch.</desc>
    <g id="Main" stroke="none" stroke-width="1" fill="none" fill-rule="evenodd">
        <g id="000-Home" transform="translate(-883.000000, -2470.000000)" fill="#4C4C4C">
            <g id="Orders" transform="translate(0.000000, 1890.000000)">
                <g id="3" transform="translate(855.000000, 268.000000)">
                    <path d="M30.5,325.75 L29.2510896,325.75 C28.5601319,325.75 28,325.193954 28,324.505528 L28,313.244472 C28,312.557169 28.5613827,312 29.244247,312 L39.255753,312 C39.9429317,312 40.5,312.558687 40.5,313.253051 L40.5,315.125 L43.9431218,315.125 C44.1126059,315.125 44.3353698,315.231712 44.4463364,315.370421 L47.8036636,319.567079 C47.9120972,319.702621 48,319.947669 48,320.123366 L48,324.505305 C48,325.192731 47.4442114,325.75 46.7489104,325.75 L45.5,325.75 C45.5,327.130712 44.3807119,328.25 43,328.25 C41.6192881,328.25 40.5,327.130712 40.5,325.75 L35.5,325.75 C35.5,327.130712 34.3807119,328.25 33,328.25 C31.6192881,328.25 30.5,327.130712 30.5,325.75 Z M35.1655445,324.5 L38.9397542,324.5 C39.1086369,324.5 39.25,324.36003 39.25,324.187369 L39.25,313.562631 C39.25,313.392242 39.1110982,313.25 38.9397542,313.25 L29.5602458,313.25 C29.3913631,313.25 29.25,313.38997 29.25,313.562631 L29.25,324.187369 C29.25,324.357758 29.3889018,324.5 29.5602458,324.5 L30.8344555,324.5 C31.2667173,323.752748 32.0746471,323.25 33,323.25 C33.9253529,323.25 34.7332827,323.752748 35.1655445,324.5 Z M45.1655445,324.5 L46.75,324.5 L46.75,320.75 L40.5,320.75 L40.5,324.5 L40.8344555,324.5 C41.2667173,323.752748 42.0746471,323.25 43,323.25 C43.9253529,323.25 44.7332827,323.752748 45.1655445,324.5 Z M40.5,316.375 L40.5,320.125 L46.75,320.125 L43.625,316.375 L40.5,316.375 Z M43,327.625 C44.0355339,327.625 44.875,326.785534 44.875,325.75 C44.875,324.714466 44.0355339,323.875 43,323.875 C41.9644661,323.875 41.125,324.714466 41.125,325.75 C41.125,326.785534 41.9644661,327.625 43,327.625 Z M43,326.375 C42.654822,326.375 42.375,326.095178 42.375,325.75 C42.375,325.404822 42.654822,325.125 43,325.125 C43.345178,325.125 43.625,325.404822 43.625,325.75 C43.625,326.095178 43.345178,326.375 43,326.375 Z M33,327.625 C34.0355339,327.625 34.875,326.785534 34.875,325.75 C34.875,324.714466 34.0355339,323.875 33,323.875 C31.9644661,323.875 31.125,324.714466 31.125,325.75 C31.125,326.785534 31.9644661,327.625 33,327.625 Z M33,326.375 C32.654822,326.375 32.375,326.095178 32.375,325.75 C32.375,325.404822 32.654822,325.125 33,325.125 C33.345178,325.125 33.625,325.404822 33.625,325.75 C33.625,326.095178 33.345178,326.375 33,326.375 Z" id="Shape"></path>
                </g>
            </g>
        </g>
    </g>
</svg>