<?xml version="1.0" encoding="UTF-8"?>
<svg width="9px" height="15px" viewBox="0 0 9 15" version="1.1" xmlns="http://www.w3.org/2000/svg" xmlns:xlink="http://www.w3.org/1999/xlink">
    <!-- Generator: Sketch 52.5 (67469) - http://www.bohemiancoding.com/sketch -->
    <title>Up &amp; down</title>
    <desc>Created with Sketch.</desc>
    <g id="Symbols" stroke="none" stroke-width="1" fill="none" fill-rule="evenodd">
        <g id="Icon/up-&amp;-down" transform="translate(-8.000000, -5.000000)" fill="#ADADAD">
            <path d="M12.1,5.53333333 C12.1284271,5.4954305 12.1620972,5.46176046 12.2,5.43333333 C12.4209139,5.26764791 12.7343146,5.31241943 12.9,5.53333333 L16.4,10.2 C16.4649111,10.2865481 16.5,10.3918149 16.5,10.5 C16.5,10.7761424 16.2761424,11 16,11 L9,11 C8.89181489,11 8.78654809,10.9649111 8.7,10.9 C8.4790861,10.7343146 8.43431458,10.4209139 8.6,10.2 L12.1,5.53333333 Z M12.1,19.4666667 L8.6,14.8 C8.43431458,14.5790861 8.4790861,14.2656854 8.7,14.1 C8.78654809,14.0350889 8.89181489,14 9,14 L16,14 C16.2761424,14 16.5,14.2238576 16.5,14.5 C16.5,14.6081851 16.4649111,14.7134519 16.4,14.8 L12.9,19.4666667 C12.7343146,19.6875806 12.4209139,19.7323521 12.2,19.5666667 C12.1620972,19.5382395 12.1284271,19.5045695 12.1,19.4666667 Z" id="Up-&amp;-down"></path>
        </g>
    </g>
</svg>