<?xml version="1.0" encoding="UTF-8"?>
<svg width="23px" height="16px" viewBox="0 0 23 16" version="1.1" xmlns="http://www.w3.org/2000/svg" xmlns:xlink="http://www.w3.org/1999/xlink">
    <!-- Generator: Sketch 52.6 (67491) - http://www.bohemiancoding.com/sketch -->
    <title>Icon/Menu/Out Order</title>
    <desc>Created with Sketch.</desc>
    <g id="Symbols" stroke="none" stroke-width="1" fill="none" fill-rule="evenodd">
        <g id="Icon/Menu/In-Order" fill="#FFFFFF" fill-rule="nonzero">
            <path d="M16,3 L15,3 L15,13 L16,13 L16,14.9991283 C16,15.5518945 15.5553691,16 14.9991283,16 L1.00087166,16 C0.448105505,16 -5.32907052e-15,15.5553691 -5.32907052e-15,14.9991283 L-5.32907052e-15,1.00087166 C-5.32907052e-15,0.448105505 0.444630861,0 1.00087166,0 L14.9991283,0 C15.5518945,0 16,0.444630861 16,1.00087166 L16,3 Z M1,1 L1,15 L15,15 L15,1 L12,1 L12,2 C12,2.55613518 11.5537234,3 11.0032133,3 L4.99873985,3 C4.45487883,3 4.0015159,2.55228475 4.00097656,2 L4,1 L1,1 Z M5,1 L5,2 L11,2 L11,1 L5,1 Z M4,11.5 C4,11.2238576 4.23079681,11 4.50043583,11 L11.4995642,11 C11.7759472,11 12,11.2319336 12,11.5 C12,11.7761424 11.7692032,12 11.4995642,12 L4.50043583,12 C4.22405275,12 4,11.7680664 4,11.5 Z M4,9.5 C4,9.22385763 4.23079681,9 4.50043583,9 L11.4995642,9 C11.7759472,9 12,9.23193359 12,9.5 C12,9.77614237 11.7692032,10 11.4995642,10 L4.50043583,10 C4.22405275,10 4,9.76806641 4,9.5 Z M4,7.5 C4,7.22385763 4.23079681,7 4.50043583,7 L11.4995642,7 C11.7759472,7 12,7.23193359 12,7.5 C12,7.77614237 11.7692032,8 11.4995642,8 L4.50043583,8 C4.22405275,8 4,7.76806641 4,7.5 Z M15.6004126,8.04166667 L22.53125,8.04166667 C22.7901335,8.04166667 23,8.24686949 23,8.5 C23,8.75313051 22.7901335,8.95833333 22.53125,8.95833333 L15.6004126,8.95833333 L17.9564563,11.2175761 C18.1395146,11.3965664 18.1395146,11.686767 17.9564563,11.8657573 C17.773398,12.0447476 17.476602,12.0447476 17.2935437,11.8657573 L14.1372937,8.82409061 C13.9542354,8.64510031 13.9542354,8.35489969 14.1372937,8.17590939 L17.2935437,5.13424273 C17.476602,4.95525242 17.773398,4.95525242 17.9564563,5.13424273 C18.1395146,5.31323303 18.1395146,5.60343364 17.9564563,5.78242394 L15.6004126,8.04166667 Z" id="Icon/Menu/Out-Order"></path>
        </g>
    </g>
</svg>