<?xml version="1.0" encoding="UTF-8"?>
<svg width="23px" height="16px" viewBox="0 0 23 16" version="1.1" xmlns="http://www.w3.org/2000/svg" xmlns:xlink="http://www.w3.org/1999/xlink">
    <!-- Generator: Sketch 52.6 (67491) - http://www.bohemiancoding.com/sketch -->
    <title>Icon/Menu/Out Offers</title>
    <desc>Created with Sketch.</desc>
    <g id="Symbols" stroke="none" stroke-width="1" fill="none" fill-rule="evenodd">
        <g id="Icon/Menu/Out-Offers" fill="#FFFFFF" fill-rule="nonzero">
            <path d="M13,12 L13,13.0043778 C13,13.5542448 12.5514869,14 11.9975267,14 L11,14 L3.00247329,14 C2.44882258,14 2,13.5500512 2,13.0043778 L2,3 L1.24719238,3 C1.11230469,3 1,3.11221403 1,3.25063705 L1,14.7493629 C1,14.8888673 1.1106718,15 1.24719238,15 L10.7528076,15 C10.8876953,15 11,14.887786 11,14.7493629 L11,15.0043778 C11,15.5542448 10.5514869,16 9.99752671,16 L1.00247329,16 C0.448822582,16 -7.10542736e-15,15.5500512 -7.10542736e-15,15.0043778 L-7.10542736e-15,2.99562215 C-7.10542736e-15,2.44575522 0.448513113,2 1.00247329,2 L2,2 L2,0.995622154 C2,0.445755222 2.44851311,0 3.00247329,0 L11.9975267,0 C12.5511774,0 13,0.449948758 13,0.995622154 L13,2 L12,2 L12,12 L13,12 Z M3,1.25063705 L3,12.7493629 C3,12.8888673 3.09960462,13 3.22247314,13 L11.7775269,13 C11.8989258,13 12,12.887786 12,12.7493629 L12,1.25063705 C12,1.11113268 11.9003954,1 11.7775269,1 L3.22247314,1 C3.10107422,1 3,1.11221403 3,1.25063705 Z M21.3995874,7.95833333 L14.46875,7.95833333 C14.2098665,7.95833333 14,7.75313051 14,7.5 C14,7.24686949 14.2098665,7.04166667 14.46875,7.04166667 L21.3995874,7.04166667 L19.0435437,4.78242394 C18.8604854,4.60343364 18.8604854,4.31323303 19.0435437,4.13424273 C19.226602,3.95525242 19.523398,3.95525242 19.7064563,4.13424273 L22.8627063,7.17590939 C23.0457646,7.35489969 23.0457646,7.64510031 22.8627063,7.82409061 L19.7064563,10.8657573 C19.523398,11.0447476 19.226602,11.0447476 19.0435437,10.8657573 C18.8604854,10.686767 18.8604854,10.3965664 19.0435437,10.2175761 L21.3995874,7.95833333 Z M5,5.5 C5,5.22385763 5.11450028,5 5.25017366,5 L10.7498263,5 C10.8879934,5 11,5.23193359 11,5.5 C11,5.77614237 10.8854997,6 10.7498263,6 L5.25017366,6 C5.11200656,6 5,5.76806641 5,5.5 Z M5,7.5 C5,7.22385763 5.11450028,7 5.25017366,7 L10.7498263,7 C10.8879934,7 11,7.23193359 11,7.5 C11,7.77614237 10.8854997,8 10.7498263,8 L5.25017366,8 C5.11200656,8 5,7.76806641 5,7.5 Z M5,9.5 C5,9.22385763 5.11450028,9 5.25017366,9 L10.7498263,9 C10.8879934,9 11,9.23193359 11,9.5 C11,9.77614237 10.8854997,10 10.7498263,10 L5.25017366,10 C5.11200656,10 5,9.76806641 5,9.5 Z M5,3.5 C5,3.22385763 5.11450028,3 5.25017366,3 L10.7498263,3 C10.8879934,3 11,3.23193359 11,3.5 C11,3.77614237 10.8854997,4 10.7498263,4 L5.25017366,4 C5.11200656,4 5,3.76806641 5,3.5 Z"></path>
        </g>
    </g>
</svg>