<?xml version="1.0" encoding="UTF-8"?>
<svg width="16px" height="16px" viewBox="0 0 16 16" version="1.1" xmlns="http://www.w3.org/2000/svg" xmlns:xlink="http://www.w3.org/1999/xlink">
    <!-- Generator: Sketch 52.6 (67491) - http://www.bohemiancoding.com/sketch -->
    <title>Exit</title>
    <desc>Created with Sketch.</desc>
    <g id="Symbols" stroke="none" stroke-width="1" fill="none" fill-rule="evenodd">
        <g id="Icon/Menu/Exit" fill="#FFFFFF" fill-rule="nonzero">
            <path d="M8.71568428,1.92260631 L8.71568428,11.2821939 C8.71568428,11.559016 8.48375069,11.7834247 8.21568428,11.7834247 C7.93954191,11.7834247 7.71568428,11.5536741 7.71568428,11.2821939 L7.71568428,1.92260631 L6.1665752,3.60674681 C5.96505242,3.82583576 5.62016759,3.84359643 5.39625338,3.64641637 C5.17233918,3.44923632 5.15418734,3.11178361 5.35571013,2.89269466 L7.53791033,0.520278296 C7.90961695,0.116171072 8.51913402,0.113325306 8.89345824,0.520278296 L11.0756584,2.89269466 C11.2771812,3.11178361 11.2590294,3.44923632 11.0351152,3.64641637 C10.811201,3.84359643 10.4663161,3.82583576 10.2647934,3.60674681 L8.71568428,1.92260631 Z M0.21612978,14.7859491 L0.21612978,8.78000937 C0.21612978,8.23601554 0.66256069,7.78297923 1.21326113,7.78297923 L0.218998432,7.78297923 C0.762943745,7.78297923 1.21612978,8.23200598 1.21612978,8.78590856 L1.21612978,14.7829792 L15.2161298,14.7829792 L15.2161298,8.78590856 C15.2161298,8.22086058 15.663845,7.78297923 16.2161298,7.78297923 L15.2161298,7.78297923 C15.7629437,7.78297923 16.2161298,8.22936483 16.2161298,8.78000937 L16.2161298,14.7859491 C16.2161298,15.3299429 15.7680243,15.7829792 15.2152581,15.7829792 L1.21700144,15.7829792 C0.660760641,15.7829792 0.21612978,15.3365936 0.21612978,14.7859491 Z" id="Exit" transform="translate(8.216130, 7.999555) rotate(-90.000000) translate(-8.216130, -7.999555) "></path>
        </g>
    </g>
</svg>