<?xml version="1.0" encoding="UTF-8"?>
<svg width="38px" height="48px" viewBox="0 0 38 48" version="1.1" xmlns="http://www.w3.org/2000/svg" xmlns:xlink="http://www.w3.org/1999/xlink">
    <!-- Generator: Sketch 52.6 (67491) - http://www.bohemiancoding.com/sketch -->
    <title>exl</title>
    <desc>Created with Sketch.</desc>
    <g id="Personal-Area-1280" stroke="none" stroke-width="1" fill="none" fill-rule="evenodd">
        <g id="411-Out-offers.-Is-expecting" transform="translate(-290.000000, -782.000000)" fill="#4C4C4C" fill-rule="nonzero">
            <g id="Offers" transform="translate(270.000000, 305.000000)">
                <g id="Docs" transform="translate(20.000000, 477.000000)">
                    <path d="M25.5,2.30158252 C25.3701387,2.26856537 25.2432552,2.25 25.1289311,2.25 L3.7457724,2.25 C2.91899455,2.25 2.25,2.9203947 2.25,3.74736846 L2.25,44.2526315 C2.25,45.0841259 2.92322607,45.75 3.75369251,45.75 L33.7463075,45.75 C34.5758587,45.75 35.25,45.0787505 35.25,44.2507224 L35.25,12.3694852 C35.25,12.2561675 35.2315506,12.1297553 35.1985913,12 L28.875,12 C27.0086144,12 25.5,10.491501 25.5,8.625 L25.5,2.30158252 Z M26.25,2.64872639 L26.25,8.625 C26.25,10.0772746 27.4228151,11.25 28.875,11.25 L34.8514189,11.25 C34.8091191,11.1923183 34.7647824,11.1397824 34.7190981,11.0940981 L26.4059019,2.78090192 C26.3603965,2.73539654 26.3078499,2.69108932 26.25,2.64872639 Z M14.25,30 L14.25,26.25 L7.5,26.25 L7.5,25.5 L14.25,25.5 L14.25,21.75 L15,21.75 L15,25.5 L30,25.5 L30,26.25 L15,26.25 L15,30 L30,30 L30,30.75 L15,30.75 L15,34.5 L14.25,34.5 L14.25,30.75 L7.5,30.75 L7.5,30 L14.25,30 Z M0,3.74648632 C0,1.67735906 1.67876957,0 3.75423431,0 L25.5002195,0 C26.3285254,0 27.4784476,0.478447616 28.0645792,1.06457924 L36.4354208,9.43542076 C37.0233716,10.0233716 37.5,11.1667982 37.5,11.9931855 L37.5,44.2499761 C37.5,46.3210571 35.8158518,48 33.7499761,48 L3.75002394,48 C1.6789429,48 0,46.3197995 0,44.2535137 L0,3.74648632 Z M6.75,22.4980664 C6.75,21.6707072 7.41694629,21 8.25130749,21 L29.2486925,21 C30.0778417,21 30.75,21.668194 30.75,22.4980664 L30.75,33.7519336 C30.75,34.5792928 30.0830537,35.25 29.2486925,35.25 L8.25130749,35.25 C7.42215826,35.25 6.75,34.581806 6.75,33.7519336 L6.75,22.4980664 Z M7.5,22.4999702 L7.5,33.7500298 C7.5,34.1589683 7.83516647,34.5 8.24861526,34.5 L29.2513847,34.5 C29.6644761,34.5 30,34.1642269 30,33.7500298 L30,22.4999702 C30,22.0910317 29.6648335,21.75 29.2513847,21.75 L8.24861526,21.75 C7.8355239,21.75 7.5,22.0857731 7.5,22.4999702 Z" id="exl"></path>
                </g>
            </g>
        </g>
    </g>
</svg>