<?xml version="1.0" encoding="UTF-8"?>
<svg width="18px" height="4px" viewBox="0 0 18 4" version="1.1" xmlns="http://www.w3.org/2000/svg" xmlns:xlink="http://www.w3.org/1999/xlink">
    <!-- Generator: Sketch 52.6 (67491) - http://www.bohemiancoding.com/sketch -->
    <title>More</title>
    <desc>Created with Sketch.</desc>
    <g id="Symbols" stroke="none" stroke-width="1" fill="none" fill-rule="evenodd">
        <g id="Orders/Outgoing" transform="translate(-971.000000, -25.000000)" fill="#A5A5A5" fill-rule="nonzero">
            <g id="More">
                <path d="M973,29 C971.895431,29 971,28.1045695 971,27 C971,25.8954305 971.895431,25 973,25 C974.104569,25 975,25.8954305 975,27 C975,28.1045695 974.104569,29 973,29 Z M980,29 C978.895431,29 978,28.1045695 978,27 C978,25.8954305 978.895431,25 980,25 C981.104569,25 982,25.8954305 982,27 C982,28.1045695 981.104569,29 980,29 Z M987,29 C985.895431,29 985,28.1045695 985,27 C985,25.8954305 985.895431,25 987,25 C988.104569,25 989,25.8954305 989,27 C989,28.1045695 988.104569,29 987,29 Z"></path>
            </g>
        </g>
    </g>
</svg>