<?xml version="1.0" encoding="UTF-8"?>
<svg width="24px" height="24px" viewBox="0 0 24 24" version="1.1" xmlns="http://www.w3.org/2000/svg" xmlns:xlink="http://www.w3.org/1999/xlink">
    <!-- Generator: Sketch 52.6 (67491) - http://www.bohemiancoding.com/sketch -->
    <title>Icon/Plus</title>
    <desc>Created with Sketch.</desc>
    <g id="Icon/Plus" stroke="none" stroke-width="1" fill="none" fill-rule="evenodd">
        <path d="M11,11 L11,7.00247329 C11,6.44882258 11.4438648,6 12,6 C12.5522847,6 13,6.45576096 13,7.00247329 L13,11 L16.9975267,11 C17.5511774,11 18,11.4438648 18,12 C18,12.5522847 17.544239,13 16.9975267,13 L13,13 L13,16.9975267 C13,17.5511774 12.5561352,18 12,18 C11.4477153,18 11,17.544239 11,16.9975267 L11,13 L7.00247329,13 C6.44882258,13 6,12.5561352 6,12 C6,11.4477153 6.45576096,11 7.00247329,11 L11,11 Z M12,24 C5.372583,24 0,18.627417 0,12 C0,5.372583 5.372583,0 12,0 C18.627417,0 24,5.372583 24,12 C24,18.627417 18.627417,24 12,24 Z M12,22.5 C17.7989899,22.5 22.5,17.7989899 22.5,12 C22.5,6.20101013 17.7989899,1.5 12,1.5 C6.20101013,1.5 1.5,6.20101013 1.5,12 C1.5,17.7989899 6.20101013,22.5 12,22.5 Z" id="Icon/Minus" fill="#169BD5" fill-rule="nonzero"></path>
    </g>
</svg>