<svg xmlns="http://www.w3.org/2000/svg" width="24" height="20" viewBox="0 0 24 20">
    <path fill="#4C4C4C" fill-rule="evenodd" d="M3 16.5H1.501C.672 16.5 0 15.833 0 15.007V1.493C0 .67.674 0 1.493 0h12.014C14.332 0 15 .67 15 1.504V3.75h4.132c.203 0 .47.128.604.295l4.028 5.035c.13.163.236.457.236.668v5.258c0 .825-.667 1.494-1.501 1.494H21a3 3 0 0 1-6 0H9a3 3 0 0 1-6 0zM8.599 15h4.529a.376.376 0 0 0 .372-.375V1.875a.375.375 0 0 0-.372-.375H1.872a.376.376 0 0 0-.372.375v12.75c0 .204.167.375.372.375h1.53a2.999 2.999 0 0 1 5.197 0zm12 0H22.5v-4.5H15V15h.401a2.999 2.999 0 0 1 5.198 0zM15 5.25v4.5h7.5l-3.75-4.5H15zm3 13.5a2.25 2.25 0 1 0 0-4.5 2.25 2.25 0 0 0 0 4.5zm0-1.5a.75.75 0 1 1 0-1.5.75.75 0 0 1 0 1.5zm-12 1.5a2.25 2.25 0 1 0 0-4.5 2.25 2.25 0 0 0 0 4.5zm0-1.5a.75.75 0 1 1 0-1.5.75.75 0 0 1 0 1.5z"/>
</svg>
