<?xml version="1.0" encoding="UTF-8"?>
<svg width="80px" height="80px" viewBox="0 0 80 80" version="1.1" xmlns="http://www.w3.org/2000/svg" xmlns:xlink="http://www.w3.org/1999/xlink">
    <!-- Generator: Sketch 52.5 (67469) - http://www.bohemiancoding.com/sketch -->
    <title>Agreement</title>
    <desc>Created with Sketch.</desc>
    <g id="Main" stroke="none" stroke-width="1" fill="none" fill-rule="evenodd">
        <g id="100-Orders" transform="translate(-955.000000, -616.000000)">
            <g id="Stacked-Group" transform="translate(955.000000, 260.000000)">
                <g id="3" transform="translate(0.000000, 356.000000)">
                    <g id="Agreement">
                        <path d="M72.2580645,23.2258065 L72.2580645,0 L20.0711945,0 L7.74193548,13.6983368 L7.74193548,23.2258065 L7.74193548,33.5483871 L7.74193548,37.9240171 L2.80745968,36.1290323 L0,36.1290323 L0,64.516129 L11.2707913,64.516129 L11.9468245,62.3506805 L17.3998235,65.6218498 L21.015625,66.56376 C20.7793598,67.0822832 20.6451613,67.6436492 20.6451613,68.2308468 C20.6451613,70.4038558 22.3765121,72.1679687 24.53062,72.2435735 C24.6062248,74.3976815 26.3715977,76.1290323 28.5433468,76.1290323 C29.0026461,76.1290323 29.4518648,76.0345261 29.8802923,75.8826865 C30.3950353,77.515121 31.9046119,78.7096774 33.7046371,78.7096774 C34.5640121,78.7096774 35.3988155,78.4167087 36.0861895,77.9107863 L37.0413306,78.8659274 C37.7715474,79.5974042 38.7443297,80 39.7782258,80 L40,80 C41.6708669,80 43.0840474,78.9301916 43.6246219,77.4451865 C44.3523185,78.2308468 45.3704637,78.7096774 46.4516129,78.7096774 C48.2428176,78.7096774 49.7391632,77.4810987 50.1795615,75.8272429 C50.6325605,76.0093245 51.1132813,76.1290323 51.6129032,76.1290323 C53.4041079,76.1290323 54.9004535,74.9004535 55.3408518,73.2465977 C55.7938508,73.4286794 56.2745716,73.5483871 56.7741935,73.5483871 C58.9081402,73.5483871 60.6451613,71.811366 60.6451613,69.6774194 L60.6451613,69.2477319 C60.6451613,68.4154485 60.3704637,67.5907258 59.8695816,66.9254032 L59.4424144,66.3558468 L64.233241,62.5226815 L64.858241,64.516129 L80,64.516129 L80,36.1290323 L77.4193548,36.1290323 L72.2580645,37.5894658 L72.2580645,33.5483871 L72.2580645,23.2258065 Z M20.6451613,3.21950613 L20.6451613,12.9032258 L11.9291835,12.9032258 L20.6451613,3.21950613 Z M10.3225806,15.483871 L23.2258065,15.483871 L23.2258065,2.58064516 L69.6774194,2.58064516 L69.6774194,23.2258065 L69.6774194,33.5483871 L69.6774194,38.3203126 L57.7293347,41.7017389 L58.8463961,45.2772177 L42.7589466,46.3495465 C41.5561997,46.4295615 40.4000756,46.7433216 39.3201865,47.2826361 L36.5587197,48.6630545 C35.3326613,48.0682965 33.9925655,47.7419355 32.6178176,47.7419355 L23.530116,47.7419355 L17.4609374,44.7070313 L18.3726058,41.7899445 L10.3225806,38.8621471 L10.3225806,33.5483871 L10.3225806,23.2258065 L10.3225806,15.483871 Z M9.37437,61.9354839 L2.58064516,61.9354839 L2.58064516,38.7922127 L15.1757813,43.3713458 L9.37437,61.9354839 Z M18.5641381,63.3108619 L12.7406755,59.8166582 L16.6828377,47.202621 L22.9214969,50.3225806 L32.6190776,50.3225806 C33.8293852,50.3225806 35.0113406,50.6621724 36.0376765,51.3029234 L43.0544355,55.688004 C43.5653982,56.0074345 43.8709677,56.5599798 43.8709677,57.1635584 L43.8709677,57.6140373 C43.8709677,58.5742187 43.0903477,59.3548387 42.1289063,59.3548387 C41.8138861,59.3548387 41.5057965,59.2697832 41.234879,59.1072329 L36.3886089,56.2002268 C34.4556452,55.0428427 31.8453881,55.3654234 30.2513861,56.9562752 L22.8295111,64.3781502 L18.5641381,63.3108619 Z M41.2903226,76.1290323 C41.2903226,76.8397177 40.7119455,77.4193548 40,77.4193548 L39.7782258,77.4193548 C39.438634,77.4193548 39.1059727,77.281376 38.8659274,77.0413306 L37.797379,75.9727823 C37.5535534,75.7289566 37.4193548,75.4038558 37.4193548,75.0592239 L37.4193548,74.8387097 C37.4193548,74.1280242 37.9977319,73.5483871 38.7096774,73.5483871 L38.9314516,73.5483871 C39.2710434,73.5483871 39.6037047,73.686366 39.84375,73.9264113 L40.9122984,74.9949597 C41.156124,75.2387853 41.2903226,75.5638861 41.2903226,75.9085181 L41.2903226,76.1290323 Z M47.7419355,74.8387097 C47.7419355,75.5493952 47.1635584,76.1290323 46.4516129,76.1290323 C46.0477571,76.1290323 45.6621724,75.93687 45.4196068,75.6130292 L42.8389616,72.171749 C42.672001,71.9499748 42.5806452,71.6746471 42.5806452,71.3974294 L42.5806452,70.9677419 C42.5806452,70.2570565 43.1590223,69.6774194 43.8709677,69.6774194 C44.2748235,69.6774194 44.6604082,69.8695816 44.9029739,70.1934224 L47.483619,73.6347026 C47.6505797,73.8564768 47.7419355,74.1318045 47.7419355,74.4090223 L47.7419355,74.8387097 Z M52.9032258,72.2580645 C52.9032258,72.96875 52.3248487,73.5483871 51.6129032,73.5483871 C51.2090474,73.5483871 50.8234627,73.3562248 50.5808971,73.032384 L48.0002519,69.5911039 C47.8332913,69.3693297 47.7419355,69.0940019 47.7419355,68.8167842 L47.7419355,68.3870968 C47.7419355,67.6764113 48.3203126,67.0967742 49.0322581,67.0967742 C49.4361139,67.0967742 49.8216985,67.2889365 50.0642642,67.6127773 L52.6449094,71.0540574 C52.81187,71.2758316 52.9032258,71.5511594 52.9032258,71.8283771 L52.9032258,72.2580645 Z M58.0645161,69.6774194 C58.0645161,70.3881048 57.486139,70.9677419 56.7741935,70.9677419 C56.3703377,70.9677419 55.9847531,70.7755797 55.7421874,70.4517389 L53.1615423,67.0104587 C52.9945816,66.7886845 52.9032258,66.5133568 52.9032258,66.236139 L52.9032258,65.8064516 C52.9032258,65.0957661 53.4816029,64.516129 54.1935484,64.516129 C54.5974042,64.516129 54.9829889,64.7082913 55.2255545,65.0321321 L57.8061997,68.4734123 C57.9731603,68.6951865 58.0645161,68.9705142 58.0645161,69.2477319 L58.0645161,69.6774194 Z M57.8944052,64.2905745 L57.2901966,63.4841229 C56.56376,62.515121 55.406376,61.9354839 54.1935484,61.9354839 C52.4023437,61.9354839 50.9059981,63.1640626 50.4655998,64.8179184 C50.0126008,64.6358368 49.53188,64.516129 49.0322581,64.516129 C47.2410534,64.516129 45.7447077,65.7447077 45.3043095,67.3985635 C44.8513105,67.2164819 44.3705897,67.0967742 43.8709677,67.0967742 C41.7370211,67.0967742 40,68.8337953 40,70.9677419 L40,71.1353326 C39.6553679,71.0364163 39.3006552,70.9677419 38.9314516,70.9677419 L38.7096774,70.9677419 C36.5757308,70.9677419 34.8387097,72.7047631 34.8387097,74.8387097 L34.8387097,75.0592239 C34.8387097,75.2242944 34.8658015,75.3843245 34.8865927,75.546875 L34.7278226,75.7056452 C34.4581653,75.9740423 34.0851815,76.1290323 33.7046371,76.1290323 C32.9070061,76.1290323 32.2580645,75.4800906 32.2580645,74.6824597 C32.2580645,74.2956148 32.4080142,73.9327116 32.6814516,73.6592742 L38.3316532,68.0090726 L36.5070565,66.1844758 L29.5665323,73.125 C29.296875,73.3933971 28.9238911,73.5483871 28.5433468,73.5483871 C27.7457158,73.5483871 27.0967742,72.8994455 27.0967742,72.1018145 C27.0967742,71.7149697 27.2467239,71.3520665 27.5201613,71.078629 L34.4606855,64.1381048 L32.6360887,62.3135081 L25.6955645,69.2540323 C25.4259073,69.5224294 25.0529234,69.6774194 24.672379,69.6774194 C23.8747481,69.6774194 23.2258065,69.0284777 23.2258065,68.2308468 C23.2258065,67.8440019 23.3757561,67.4810987 23.6491935,67.2076613 L32.0759829,58.7808719 C32.8503024,58.0065524 34.1223539,57.8490423 35.0604839,58.4129284 L39.9054939,61.3199345 C40.5783771,61.7225303 41.3470261,61.9354839 42.1289063,61.9354839 C44.5123487,61.9354839 46.4516129,59.9974798 46.4516129,57.6140373 L46.4516129,57.1635584 C46.4516129,55.6634324 45.6917842,54.2930948 44.4203629,53.4992439 L39.1935484,50.233745 L40.4737903,49.593624 C41.2449597,49.2080394 42.0696824,48.9831148 42.9290574,48.9264113 L59.6377268,47.81313 L63.4078881,59.8802923 L57.8944052,64.2905745 Z M77.4193548,38.7613406 L77.4193548,61.9354839 L66.7546623,61.9354839 L60.9803427,43.4582913 L77.4193548,38.7613406 Z M26.3414634,5.87804878 L67.3170732,5.87804878 L67.3170732,8.80487805 L26.3414634,8.80487805 L26.3414634,5.87804878 Z M26.3414634,10.7560976 L67.3170732,10.7560976 L67.3170732,13.6829268 L26.3414634,13.6829268 L26.3414634,10.7560976 Z" id="Shape" fill="#848484" fill-rule="nonzero"></path>
                        <path d="M34.9400407,30.3963415 L36.7439024,30.3963415 L36.7439024,22.2916667 L41.3932927,22.2916667 C42.2571181,22.2916667 43.0447119,22.3890573 43.7560976,22.5838415 C44.4674832,22.7786256 45.0772332,23.0750319 45.5853659,23.4730691 C46.0934985,23.8711063 46.4915297,24.374997 46.7794715,24.9847561 C47.0674134,25.5945152 47.2113821,26.3228277 47.2113821,27.1697154 C47.2113821,28.0166032 47.0589446,28.7533844 46.754065,29.3800813 C46.4491855,30.0067782 46.0342167,30.5276063 45.5091463,30.9425813 C44.984076,31.3575563 44.3658572,31.6666657 43.6544715,31.8699187 C42.9430859,32.0731717 42.1724296,32.1747967 41.3424797,32.1747967 L38.7764228,32.1747967 L38.7764228,34.7408537 L42.8668699,34.7408537 L42.8668699,36.4176829 L38.7764228,36.4176829 L38.7764228,40 L36.7439024,40 L36.7439024,36.4176829 L34.9400407,36.4176829 L34.9400407,34.7408537 L36.7439024,34.7408537 L36.7439024,32.1747967 L34.9400407,32.1747967 L34.9400407,30.3963415 Z M41.3932927,30.3963415 C42.5619977,30.3963415 43.4808571,30.1295758 44.1498984,29.5960366 C44.8189397,29.0624973 45.1534553,28.2537317 45.1534553,27.1697154 C45.1534553,26.0856992 44.8189397,25.2981054 44.1498984,24.8069106 C43.4808571,24.3157157 42.5619977,24.070122 41.3932927,24.070122 L38.7764228,24.070122 L38.7764228,30.3963415 L41.3932927,30.3963415 Z" id="₽" fill="#29A42E"></path>
                    </g>
                </g>
            </g>
        </g>
    </g>
</svg>