<?xml version="1.0" encoding="UTF-8"?>
<svg width="87px" height="81px" viewBox="0 0 87 81" version="1.1" xmlns="http://www.w3.org/2000/svg" xmlns:xlink="http://www.w3.org/1999/xlink">
    <!-- Generator: Sketch 52.5 (67469) - http://www.bohemiancoding.com/sketch -->
    <title>Browser</title>
    <desc>Created with Sketch.</desc>
    <g id="Main" stroke="none" stroke-width="1" fill="none" fill-rule="evenodd">
        <g id="000-Home" transform="translate(-856.000000, -822.000000)">
            <g id="Advantages" transform="translate(0.000000, 720.000000)">
                <g id="New-chanel-sale" transform="translate(855.000000, 102.000000)">
                    <g id="Browser" transform="translate(1.000000, 0.000000)">
                        <path d="M5.75925011,69.1340383 C2.57870423,69.1340383 -4.97379915e-14,66.555334 -4.97379915e-14,63.3747882 L-4.97379915e-14,5.78228711 C-4.97379915e-14,2.60174124 2.57870423,0.0230370004 5.75925011,0.0230370004 L69.1110013,0.0230370004 C72.2915471,0.0230370004 74.8702514,2.60174124 74.8702514,5.78228711 L74.8702514,8.66191216 L71.9906263,8.66191216 L71.9906263,5.78228711 C71.9906263,4.19165419 70.7016342,2.90266205 69.1110013,2.90266205 L5.75925011,2.90266205 C4.16861719,2.90266205 2.87962505,4.19165419 2.87962505,5.78228711 L2.87962505,63.3747882 C2.87962505,64.9654211 4.16861719,66.2544132 5.75925011,66.2544132 L8.63887516,66.2544132 L8.63887516,69.1340383 L5.75925011,69.1340383 Z M5.75925011,5.78228711 L8.63887516,5.78228711 L8.63887516,8.66191216 L5.75925011,8.66191216 L5.75925011,5.78228711 Z M11.5185002,5.78228711 L14.3981253,5.78228711 L14.3981253,8.66191216 L11.5185002,8.66191216 L11.5185002,5.78228711 Z M17.2777503,5.78228711 L20.1573754,5.78228711 L20.1573754,8.66191216 L17.2777503,8.66191216 L17.2777503,5.78228711 Z M11.5185002,74.8932884 L11.5185002,17.3007873 C11.5185002,14.1202414 14.0972044,11.5415372 17.2777503,11.5415372 L80.6295015,11.5415372 C83.8100474,11.5415372 86.3887516,14.1202414 86.3887516,17.3007873 L86.3887516,74.8932884 C86.3887516,78.0738342 83.8100474,80.6525385 80.6295015,80.6525385 L17.2777503,80.6525385 C14.0972044,80.6525385 11.5185002,78.0738342 11.5185002,74.8932884 Z M14.3981253,17.3007873 L14.3981253,74.8932884 C14.3981253,76.4839213 15.6871174,77.7729134 17.2777503,77.7729134 L80.6295015,77.7729134 C82.2201344,77.7729134 83.5091265,76.4839213 83.5091265,74.8932884 L83.5091265,17.3007873 C83.5091265,15.7101544 82.2201344,14.4211623 80.6295015,14.4211623 L17.2777503,14.4211623 C15.6871174,14.4211623 14.3981253,15.7101544 14.3981253,17.3007873 Z M17.2777503,17.3007873 L20.1573754,17.3007873 L20.1573754,20.1804124 L17.2777503,20.1804124 L17.2777503,17.3007873 Z M23.0370004,17.3007873 L25.9166255,17.3007873 L25.9166255,20.1804124 L23.0370004,20.1804124 L23.0370004,17.3007873 Z M28.7962505,17.3007873 L31.6758756,17.3007873 L31.6758756,20.1804124 L28.7962505,20.1804124 L28.7962505,17.3007873 Z M17.2777503,23.0600374 L80.6295015,23.0600374 L80.6295015,25.9396625 L17.2777503,25.9396625 L17.2777503,23.0600374 Z M17.2777503,30.2591001 L28.7962505,30.2591001 L28.7962505,33.1387251 L17.2777503,33.1387251 L17.2777503,30.2591001 Z M17.2777503,36.0183502 L25.9166255,36.0183502 L25.9166255,38.8979752 L17.2777503,38.8979752 L17.2777503,36.0183502 Z M71.9906263,72.0136633 L80.6295015,72.0136633 L80.6295015,74.8932884 L71.9906263,74.8932884 L71.9906263,72.0136633 Z" id="Combined-Shape" fill="#848484"></path>
                        <path d="M22.4226804,53.5123778 L22.4226804,49.2181366 L23.6253932,49.2181366 L23.7284245,49.7419427 L23.7627798,49.7419427 C24.106333,49.4070389 24.4670465,49.1150361 25.0510522,49.1150361 C25.6350579,49.1150361 26.0044208,49.3554887 26.236224,49.8021423 C26.5883573,49.4412905 26.974846,49.1150361 27.5588517,49.1150361 C28.5035709,49.1150361 28.9158001,49.8021423 28.9158001,50.8670533 L28.9158001,53.5123778 L27.438487,53.5123778 L27.438487,51.0559556 C27.438487,50.5065474 27.3011003,50.3688493 27.0090975,50.3688493 C26.8373209,50.3688493 26.631189,50.4719499 26.4078968,50.6954497 L26.4078968,53.5123778 L24.9305837,53.5123778 L24.9305837,51.0559556 C24.9305837,50.5065474 24.793197,50.3688493 24.5011942,50.3688493 C24.3294176,50.3688493 24.1232857,50.4719499 23.8999935,50.6954497 L23.8999935,53.5123778 L22.4226804,53.5123778 Z M30.7275671,55.127043 C30.5068787,55.1309 30.2868465,55.1018655 30.0747124,55.0408952 L30.33236,53.924434 C30.4096508,53.9417327 30.5212969,53.9759843 30.6072025,53.9759843 C31.0022367,53.9759843 31.1912082,53.8043807 31.2770792,53.5466293 L31.3285948,53.357727 L29.6968385,49.2181366 L31.1741516,49.2181366 L31.6894467,50.8670533 C31.8097076,51.2621567 31.8955786,51.6572601 31.9986446,52.086615 L32.0329999,52.086615 C32.1188709,51.6745588 32.2047764,51.2794554 32.3078078,50.8670533 L32.7372319,49.2181366 L34.1457998,49.2181366 L32.7028766,53.4435288 C32.2562921,54.6028909 31.7925127,55.127043 30.7275671,55.127043 Z M66.377865,53.6154784 C65.879661,53.6154784 65.5191551,53.220375 65.5191551,52.722171 C65.5191551,52.2239671 65.879661,51.8288637 66.377865,51.8288637 C66.8760689,51.8288637 67.2365748,52.2239671 67.2365748,52.722171 C67.2365748,53.220375 66.8760689,53.6154784 66.377865,53.6154784 Z M68.4647859,53.5123778 L68.4647859,49.2181366 L69.6670489,49.2181366 L69.7701494,49.9567932 L69.804401,49.9567932 C70.122352,49.3727874 70.6032572,49.1150361 71.0239627,49.1150361 C71.2903634,49.1150361 71.4363649,49.1492876 71.5564182,49.2008379 L71.3159656,50.4719499 C71.1613148,50.4376984 71.0239627,50.4034468 70.8350604,50.4034468 C70.5261047,50.4034468 70.1479541,50.5923492 69.942099,51.1248046 L69.942099,53.5123778 L68.4647859,53.5123778 Z M73.5748361,53.6154784 C72.6299785,53.6154784 72.2348751,52.9283721 72.2348751,51.8634612 L72.2348751,49.2181366 L73.7121881,49.2181366 L73.7121881,51.6745588 C73.7121881,52.2239671 73.8495402,52.3613191 74.1415431,52.3613191 C74.4165932,52.3613191 74.570898,52.2585646 74.7601463,51.9835145 L74.7601463,49.2181366 L76.2371134,49.2181366 L76.2371134,53.5123778 L75.0348504,53.5123778 L74.9317499,52.9453249 L74.8974984,52.9453249 C74.5539452,53.357727 74.1588418,53.6154784 73.5748361,53.6154784 Z M38.3866224,53.6770619 C37.2598512,53.6770619 35.9681883,53.2650057 35.0063087,52.3993764 L36.352947,50.7777917 C36.9850433,51.2863749 37.7820312,51.6434211 38.4415978,51.6434211 C39.1561399,51.6434211 39.4584529,51.409888 39.4584529,51.0113248 C39.4584529,50.5854297 39.0049835,50.4480776 38.2492012,50.1456955 L37.1361997,49.6786293 C36.1743201,49.2939051 35.336092,48.4829398 35.336092,47.1914153 C35.336092,45.6660117 36.7101662,44.4156582 38.6614649,44.4156582 C39.6782507,44.4156582 40.8050566,44.8004169 41.6295495,45.6110017 L40.4478028,47.0952343 C39.843177,46.6693391 39.3210316,46.449299 38.6614649,46.449299 C38.0843095,46.449299 37.7270558,46.6555001 37.7270558,47.0540632 C37.7270558,47.4799584 38.235466,47.6311495 39.0461891,47.9470246 L40.1317547,48.3732658 C41.2447908,48.812654 41.876887,49.5824482 41.876887,50.8189628 C41.876887,52.3305274 40.6126945,53.6770619 38.3866224,53.6770619 Z M45.5456747,53.6770619 C44.0344561,53.6770619 43.4023598,52.5778995 43.4023598,50.8739728 L43.4023598,46.6416611 L45.7657148,46.6416611 L45.7657148,50.5715907 C45.7657148,51.451059 45.9854089,51.6710991 46.452821,51.6710991 C46.8925552,51.6710991 47.1399273,51.506069 47.4419634,51.0663349 L47.4419634,46.6416611 L49.8056644,46.6416611 L49.8056644,53.5123778 L47.8816976,53.5123778 L47.7170135,52.6052315 L47.6620035,52.6052315 C47.1122493,53.2650057 46.4801531,53.6770619 45.5456747,53.6770619 Z M51.7431242,55.9307428 L51.7431242,46.6416611 L53.6667449,46.6416611 L53.831775,47.2737573 L53.886785,47.2737573 C54.3950222,46.8066911 55.0682895,46.476977 55.7553958,46.476977 C57.3769804,46.476977 58.4211328,47.8508436 58.4211328,49.9671724 C58.4211328,52.3305274 57.0195883,53.6770619 55.5630337,53.6770619 C54.9859475,53.6770619 54.4638712,53.4296898 54.0241371,52.9903016 L54.1064791,54.034454 L54.1064791,55.9307428 L51.7431242,55.9307428 Z M54.9859475,51.7534411 C55.5357017,51.7534411 56.0027679,51.3137069 56.0027679,49.9945044 C56.0027679,48.867664 55.6730537,48.4005978 55.0409575,48.4005978 C54.6835653,48.4005978 54.4088612,48.5379498 54.1064791,48.895342 L54.1064791,51.423727 C54.3462385,51.6427839 54.6612707,51.76089 54.9859475,51.7534411 Z M62.1725393,53.6770619 C60.5786327,53.6770619 60.0562105,52.6329095 60.0562105,51.0940128 L60.0562105,43.9484536 L62.4199114,43.9484536 L62.4199114,51.1763549 C62.4199114,51.6434211 62.6396055,51.7807731 62.8046356,51.7807731 C62.8879857,51.7838038 62.9713297,51.7745952 63.0520077,51.7534411 L63.3267118,53.4846998 C63.0793397,53.5947199 62.6946155,53.6770619 62.1725393,53.6770619 Z" id="Combined-Shape" fill="#29A42E" fill-rule="nonzero"></path>
                    </g>
                </g>
            </g>
        </g>
    </g>
</svg>