<?xml version="1.0" encoding="UTF-8"?>
<svg width="80px" height="65px" viewBox="0 0 80 65" version="1.1" xmlns="http://www.w3.org/2000/svg" xmlns:xlink="http://www.w3.org/1999/xlink">
    <!-- Generator: Sketch 52.5 (67469) - http://www.bohemiancoding.com/sketch -->
    <title>Consumer</title>
    <desc>Created with Sketch.</desc>
    <g id="Main" stroke="none" stroke-width="1" fill="none" fill-rule="evenodd">
        <g id="100-Orders" transform="translate(-955.000000, -437.000000)" fill-rule="nonzero">
            <g id="Stacked-Group" transform="translate(955.000000, 260.000000)">
                <g id="2" transform="translate(0.000000, 177.000000)">
                    <g id="Consumer" transform="translate(0.000000, 0.000000)">
                        <path d="M75.6868831,7.54494548 C77.8247044,7.54494548 79.5648796,9.29225663 79.5648796,11.4388446 L79.5648796,27.0144413 C79.5648796,29.1610293 77.8247044,30.9083404 75.6868831,30.9083404 L68.2748856,30.9083404 L57.5895663,37.0388232 L57.5895663,30.9083404 L49.8335734,30.9083404 C47.6957521,30.9083404 45.955577,29.1610293 45.955577,27.0144413 L45.955577,11.4388446 C45.955577,9.29225663 47.6957521,7.54494548 49.8335734,7.54494548 L75.6868831,7.54494548 Z M76.9795486,27.0144413 L76.9795486,11.4388446 C76.9795486,10.7239491 76.4001213,10.1408783 75.6868831,10.1408783 L49.8335734,10.1408783 C49.1203352,10.1408783 48.540908,10.7239491 48.540908,11.4388446 L48.540908,27.0144413 C48.540908,27.7293368 49.1203352,28.3124077 49.8335734,28.3124077 L60.1748973,28.3124077 L60.1748973,32.565656 L67.5868948,28.3124077 L75.6868831,28.3124077 C76.4001213,28.3124077 76.9795486,27.7293368 76.9795486,27.0144413 Z M51.4428101,13.0321785 L74.7635506,13.0321785 L74.7635506,15.7757951 L51.4428101,15.7757951 L51.4428101,13.0321785 Z M51.4428101,17.8335075 L74.7635506,17.8335075 L74.7635506,20.577124 L51.4428101,20.577124 L51.4428101,17.8335075 Z M61.7313721,23.3207406 L64.4749886,23.3207406 L64.4749886,26.0643571 L61.7313721,26.0643571 L61.7313721,23.3207406 Z M66.532701,23.3207406 L69.2763176,23.3207406 L69.2763176,26.0643571 L66.532701,26.0643571 L66.532701,23.3207406 Z M56.244139,23.3207406 L58.9877555,23.3207406 L58.9877555,26.0643571 L56.244139,26.0643571 L56.244139,23.3207406 Z" id="Combined-Shape" fill="#29A42E"></path>
                        <path d="M38.5821075,64.0177192 L51.4428101,64.0177192 L51.4428101,57.116434 C51.4428101,53.0615617 48.6942117,49.5012012 44.7606453,48.456537 L32.1517563,45.1093607 L32.1517563,41.7996945 C33.6475666,40.9357055 34.948708,39.7791353 35.9854764,38.4106315 L38.5821075,38.4106315 C40.7090216,38.4106315 42.4403183,36.6870295 42.4403183,34.5695684 L42.4403183,32.2908127 C43.2233894,31.587493 43.7263886,30.5784637 43.7263886,29.4481508 L43.7263886,17.9249614 C43.7263886,8.04035041 35.6501437,0 25.721405,0 C15.7926663,0 7.71642151,8.04035041 7.71642151,17.9249614 L7.71642151,29.4481508 C7.71642151,31.565612 9.44771819,33.289214 11.5746323,33.289214 L13.1206797,33.289214 C13.863561,36.9239701 16.165677,39.9929445 19.2910538,41.7996945 L19.2910538,45.1093607 L6.68216478,48.456537 C2.74859834,49.5012012 0,53.0615617 0,57.116434 L0,64.0177192 L12.8607025,64.0177192 L38.5821075,64.0177192 Z M48.8706696,57.116434 L48.8706696,61.4570104 L43.7263886,61.4570104 L43.7263886,56.3355929 L41.1542481,56.3355929 L41.1542481,61.4570104 L32.8205128,61.4570104 L36.8212965,48.9991872 L44.0981432,50.930972 C46.9082821,51.6761783 48.8706696,54.2206325 48.8706696,57.116434 Z M2.5721405,57.116434 C2.5721405,54.2206325 4.53452793,51.6761783 7.34592268,50.930972 L14.9184149,48.9991872 L18.8966589,61.4570104 L10.288562,61.4570104 L10.288562,56.3355929 L7.71642151,56.3355929 L7.71642151,61.4570104 L2.5721405,61.4570104 L2.5721405,57.116434 Z M34.3314193,48.3383794 L31.6619444,56.3112111 L27.4602373,51.2935724 L31.25,47.520653 L34.3314193,48.3383794 Z M39.8681778,34.5695684 C39.8681778,35.2747636 39.2917068,35.8499227 38.5821075,35.8499227 L37.5007536,35.8499227 C37.859321,35.0353222 38.139393,34.1800855 38.3221304,33.289214 L39.8681778,33.289214 L39.8681778,34.5695684 Z M41.1542481,29.4481508 C41.1542481,30.153346 40.577777,30.7285052 39.8681778,30.7285052 L38.5821075,30.7285052 L38.5821075,23.0463789 L39.8681778,23.0463789 C40.577777,23.0463789 41.1542481,23.6215381 41.1542481,24.3267333 L41.1542481,29.4481508 Z M11.5746323,30.7285052 C10.865033,30.7285052 10.288562,30.153346 10.288562,29.4481508 L10.288562,24.3267333 C10.288562,23.6215381 10.865033,23.0463789 11.5746323,23.0463789 L12.8607025,23.0463789 L12.8607025,30.7285052 L11.5746323,30.7285052 Z M12.8607025,20.4856701 L11.5746323,20.4856701 C11.1218703,20.4856701 10.6923429,20.5775706 10.288562,20.7213603 L10.288562,17.9249614 C10.288562,9.45261635 17.211237,2.56070877 25.721405,2.56070877 C34.231573,2.56070877 41.1542481,9.45261635 41.1542481,17.9249614 L41.1542481,20.7213603 C40.7504672,20.5775706 40.3209398,20.4856701 39.8681778,20.4856701 L36.8552065,20.4856701 C32.5065559,20.4856701 28.4185104,18.8008288 25.3446266,15.7393564 L24.4353348,14.8341059 L22.0189293,17.2385215 C19.915878,19.3334762 17.1201823,20.4856701 14.1467728,20.4856701 L12.8607025,20.4856701 Z M15.432843,30.7285052 L15.432843,22.9876126 C18.6084569,22.6944064 21.5561199,21.3227769 23.8375131,19.0490226 L24.4648491,18.4244747 C27.6875603,21.2296261 31.7197171,22.8400719 36.009967,23.0269985 L36.009967,30.7285052 C36.009967,32.5952718 35.4981764,34.3413802 34.6183988,35.8499227 L25.721405,35.8499227 L25.721405,38.4106315 L32.504044,38.4106315 C30.690484,39.9998215 28.320548,40.9713403 25.721405,40.9713403 C20.0483784,40.9713403 15.432843,36.3763184 15.432843,30.7285052 Z M25.721405,43.532049 C27.065248,43.532049 28.3601096,43.3232412 29.5796158,42.9418857 L29.5796158,45.5626111 L25.721405,49.4036742 L21.8631943,45.5626111 L21.8631943,42.9418857 C23.0827004,43.3232412 24.3775621,43.532049 25.721405,43.532049 Z M20.1928101,47.520653 L23.9825728,51.2935724 L19.7808657,56.3112111 L17.1113907,48.3383794 L20.1928101,47.520653 Z M29.8368298,61.6627817 L21.8631943,61.6627817 L20.8686333,57.7231198 L25.721405,52.8874956 L30.8313908,57.7231198 L29.8368298,61.6627817 Z" id="Shape" fill="#848484"></path>
                    </g>
                </g>
            </g>
        </g>
    </g>
</svg>