<?xml version="1.0" encoding="UTF-8"?>
<svg width="80px" height="80px" viewBox="0 0 80 80" version="1.1" xmlns="http://www.w3.org/2000/svg" xmlns:xlink="http://www.w3.org/1999/xlink">
    <!-- Generator: Sketch 52.5 (67469) - http://www.bohemiancoding.com/sketch -->
    <title>Debt </title>
    <desc>Created with Sketch.</desc>
    <g id="Main" stroke="none" stroke-width="1" fill="none" fill-rule="evenodd">
        <g id="000-Home" transform="translate(-55.000000, -824.000000)" fill-rule="nonzero">
            <g id="Advantages" transform="translate(0.000000, 720.000000)">
                <g id="Benefit" transform="translate(55.000000, 104.000000)">
                    <g id="Debt-">
                        <path d="M76,34.6666667 C78.2091667,34.6666667 80,36.4575 80,38.6666667 L80,76 C80,78.2091667 78.2091667,80 76,80 L49.3333333,80 C47.1241667,80 45.3333333,78.2091667 45.3333333,76 L45.3333333,38.6666667 C45.3333333,36.4575 47.1241667,34.6666667 49.3333333,34.6666667 L76,34.6666667 Z M61.3333333,77.3333333 L61.3333333,66.6666667 L48,66.6666667 L48,76 C48,76.7363333 48.597,77.3333333 49.3333333,77.3333333 L61.3333333,77.3333333 Z M61.3333333,64 L61.3333333,53.3333333 L48,53.3333333 L48,64 L61.3333333,64 Z M77.3333333,76 L77.3333333,66.6666667 L64,66.6666667 L64,77.3333333 L76,77.3333333 C76.7363333,77.3333333 77.3333333,76.7363333 77.3333333,76 Z M77.3333333,64 L77.3333333,53.3333333 L64,53.3333333 L64,64 L77.3333333,64 Z M77.3333333,50.6666667 L77.3333333,38.6666667 C77.3333333,37.9303333 76.7363333,37.3333333 76,37.3333333 L49.3333333,37.3333333 C48.597,37.3333333 48,37.9303333 48,38.6666667 L48,50.6666667 L77.3333333,50.6666667 Z M73.3333333,40 C74.0696667,40 74.6666667,40.597 74.6666667,41.3333333 L74.6666667,46.6666667 C74.6666667,47.403 74.0696667,48 73.3333333,48 L52,48 C51.2636667,48 50.6666667,47.403 50.6666667,46.6666667 L50.6666667,41.3333333 C50.6666667,40.597 51.2636667,40 52,40 L73.3333333,40 Z M72,45.3333333 L72,42.6666667 L53.3333333,42.6666667 L53.3333333,45.3333333 L72,45.3333333 Z M56,57.3333333 L58.6666667,57.3333333 L58.6666667,60 L56,60 L56,62.6666667 L53.3333333,62.6666667 L53.3333333,60 L50.6666667,60 L50.6666667,57.3333333 L53.3333333,57.3333333 L53.3333333,54.6666667 L56,54.6666667 L56,57.3333333 Z M66.6666667,57.3333333 L74.6666667,57.3333333 L74.6666667,60 L66.6666667,60 L66.6666667,57.3333333 Z M58.3333333,70.2083333 L56.4583333,72.0833333 L58.3333333,73.9583333 L56.4583333,75.8333333 L54.5833333,73.9583333 L52.7083333,75.8333333 L50.8333333,73.9583333 L52.7083333,72.0833333 L50.8333333,70.2083333 L52.7083333,68.3333333 L54.5833333,70.2083333 L56.4583333,68.3333333 L58.3333333,70.2083333 Z M66.6666667,70.6666667 L74.6666667,70.6666667 L74.6666667,73.3333333 L66.6666667,73.3333333 L66.6666667,70.6666667 Z M69.3333333,74 L72,74 L72,75.3333333 L69.3333333,75.3333333 L69.3333333,74 Z M69.3333333,68.6666667 L72,68.6666667 L72,70 L69.3333333,70 L69.3333333,68.6666667 Z" id="Combined-Shape" fill="#29A42E"></path>
                        <path d="M53.3333333,0 C54.8061667,0 56,1.19383333 56,2.66666667 L56,32 L53.3333333,32 L53.3333333,2.66666667 L16,2.66666667 L16,13.3333333 C16,14.8061667 14.8061667,16 13.3333333,16 L2.66666667,16 L2.66666667,77.3333333 L5.33333333,77.3333333 L5.33333333,72 C5.33333333,71.2636667 5.93033333,70.6666667 6.66666667,70.6666667 L9.33333333,70.6666667 L9.33333333,66.6666667 L6.66666667,66.6666667 C5.93033333,66.6666667 5.33333333,66.0696667 5.33333333,65.3333333 L5.33333333,58.6666667 C5.33333333,57.9303333 5.93033333,57.3333333 6.66666667,57.3333333 L9.33333333,57.3333333 L9.33333333,52 C9.33333333,51.2636667 9.93033333,50.6666667 10.6666667,50.6666667 L21.368,50.6666667 C17.9828333,48.145 15.9918333,44.1693333 16,39.9481667 C16.0143333,32.5845 21.9956667,26.6265 29.3593333,26.6408333 C36.723,26.6551667 42.681,32.6361667 42.6666667,40 C42.6626667,44.2038333 40.6725,48.1586667 37.2986667,50.6666667 L37.3333333,50.6666667 C38.0696667,50.6666667 38.6666667,51.2636667 38.6666667,52 L38.6666667,58.6666667 C38.6666667,59.403 38.0696667,60 37.3333333,60 L34.6666667,60 L34.6666667,64 L37.3333333,64 C38.0696667,64 38.6666667,64.597 38.6666667,65.3333333 L38.6666667,72 C38.6666667,72.7363333 38.0696667,73.3333333 37.3333333,73.3333333 L34.6666667,73.3333333 L34.6666667,77.3333333 L42.6666667,77.3333333 L42.6666667,80 L2.66666667,80 C1.19383333,80 0,78.8061667 0,77.3333333 L0,14.6666667 L0.012,14.6666667 C0.0075,14.3145 0.143833333,13.9751667 0.390666667,13.724 L13.724,0.390666667 C13.9753333,0.144166667 14.3146667,0.00783333333 14.6666667,0.012 L14.6666667,0 L53.3333333,0 Z M36,66.6666667 L12,66.6666667 L12,70.6666667 L36,70.6666667 L36,66.6666667 Z M18.6666667,40 C18.6733333,45.8883333 23.445,50.66 29.3333333,50.6666667 C35.2243333,50.6666667 40,45.891 40,40 C40,34.109 35.2243333,29.3333333 29.3333333,29.3333333 C23.4423333,29.3333333 18.6666667,34.109 18.6666667,40 Z M12,53.3333333 L12,57.3333333 L36,57.3333333 L36,53.3333333 L12,53.3333333 Z M8,64 L10.6666667,64 L32,64 L32,60 L8,60 L8,64 Z M8,73.3333333 L8,77.3333333 L32,77.3333333 L32,73.3333333 L8,73.3333333 Z M13.3333333,13.3333333 L13.3333333,4.5 L4.5,13.3333333 L13.3333333,13.3333333 Z M74.6666667,6.66666667 C76.1395,6.66666667 77.3333333,7.8605 77.3333333,9.33333333 L77.3333333,26.6666667 L74.6666667,26.6666667 L74.6666667,9.33333333 L72,9.33333333 L72,32 L69.3333333,32 L69.3333333,8 L61.3333333,8 L61.3333333,32 L58.6666667,32 L58.6666667,6.66666667 C58.6666667,5.93033333 59.2636667,5.33333333 60,5.33333333 L61.3333333,5.33333333 L61.3333333,1.33333333 C61.3333333,0.597 61.9303333,0 62.6666667,0 L68,0 C68.7363333,0 69.3333333,0.597 69.3333333,1.33333333 L69.3333333,5.33333333 L70.6666667,5.33333333 C71.403,5.33333333 72,5.93033333 72,6.66666667 L74.6666667,6.66666667 Z M66.6666667,5.33333333 L66.6666667,2.66666667 L64,2.66666667 L64,5.33333333 L66.6666667,5.33333333 Z M20,10.6666667 L42.6666667,10.6666667 L42.6666667,13.3333333 L20,13.3333333 L20,10.6666667 Z M5.33333333,18.6666667 L50.6666667,18.6666667 L50.6666667,21.3333333 L5.33333333,21.3333333 L5.33333333,18.6666667 Z M5.33333333,24 L21.3333333,24 L21.3333333,26.6666667 L5.33333333,26.6666667 L5.33333333,24 Z M38.6666667,24 L50.6666667,24 L50.6666667,26.6666667 L38.6666667,26.6666667 L38.6666667,24 Z" id="Combined-Shape" fill="#848484"></path>
                    </g>
                </g>
            </g>
        </g>
    </g>
</svg>