<?xml version="1.0" encoding="UTF-8"?>
<svg width="80px" height="85px" viewBox="0 0 80 85" version="1.1" xmlns="http://www.w3.org/2000/svg" xmlns:xlink="http://www.w3.org/1999/xlink">
    <!-- Generator: Sketch 52.5 (67469) - http://www.bohemiancoding.com/sketch -->
    <title>Delivery Man</title>
    <desc>Created with Sketch.</desc>
    <g id="Main" stroke="none" stroke-width="1" fill="none" fill-rule="evenodd">
        <g id="000-Home" transform="translate(-455.000000, -820.000000)">
            <g id="Advantages" transform="translate(0.000000, 720.000000)">
                <g id="Verified-Suppliers" transform="translate(455.000000, 100.000000)">
                    <g id="Delivery-Man">
                        <path d="M71.6250562,84.5440781 C71.4520687,84.6196875 71.2610084,84.6616148 71.0601973,84.6616148 L58.3609551,84.6616148 C54.4706546,84.6616148 51.3057654,81.4965602 51.3057654,77.6064252 C51.3057654,76.8261162 51.9364283,76.1954534 52.7167372,76.1954534 L64.0050076,76.1954534 L64.0050076,73.3733444 C64.0050076,71.0395279 65.9042719,69.1402637 68.2380883,69.1402637 C70.5719048,69.1402637 72.4711691,71.0395279 72.4711691,73.3735098 L72.4711691,81.4300102 C75.1986785,80.4539504 77.1556555,77.8434431 77.1568257,74.7846469 C77.1568257,74.2060708 77.0848964,73.6289828 76.9451716,73.068761 L74.5544947,63.4962111 L65.4146566,63.4962111 L65.4146566,60.6741022 L73.8496928,60.6741022 L69.353902,42.6724303 C68.8727197,40.8140086 67.1880859,39.5088638 65.2577349,39.5088638 C65.2549239,39.5088638 65.2521129,39.5088638 65.2493018,39.5088638 L47.609541,38.1436773 L41.0150799,44.7395296 C40.7511738,45.0047585 40.391362,45.1529164 40.0174949,45.1529164 C39.6436279,45.1529164 39.2838161,45.0047585 39.0199099,44.7395296 L32.4238205,38.1434401 L14.8982946,39.5040685 C12.8521953,39.5040685 11.1632623,40.8107015 10.679269,42.6831783 L6.18574839,60.6741022 L14.6175223,60.6741022 L14.6175223,63.4962111 L5.48088161,63.4962111 L3.09081036,73.0654539 C2.63228173,74.8955999 2.91305404,76.7920532 3.88104055,78.4090569 C4.73140108,79.8295687 6.0227812,80.8832021 7.5638208,81.4291556 L7.5638208,73.3733444 C7.5638208,71.0395279 9.46308507,69.1402637 11.7969015,69.1402637 C14.130718,69.1402637 16.0299823,71.0395279 16.0299823,73.3733444 L16.0299823,76.1954534 L27.3182527,76.1954534 C28.0970734,76.1954534 28.7292245,76.8261162 28.7292245,77.6062598 C28.7292245,81.4965602 25.5641699,84.6614495 21.6740348,84.6614495 L8.97479259,84.6614495 C8.77280494,84.6614495 8.58068269,84.6190294 8.4068949,84.5425803 C8.11171556,84.496358 7.81861556,84.4367267 7.52860024,84.363811 C4.97039742,83.7232268 2.81433727,82.1230892 1.45975144,79.8598792 C0.103842762,77.5965039 -0.28854398,74.9409071 0.353528384,72.3813815 L7.94347523,41.9891846 C8.75205979,38.8610041 11.5614364,36.6865895 14.7770896,36.6865895 C14.7812235,36.6865895 14.7855227,36.6865895 14.7911447,36.6865895 L31.5513335,35.3814448 L31.5513335,30.6224665 C28.9547341,28.2954487 27.3182527,24.9176399 27.3182527,21.1654037 L27.3182527,15.5692477 C27.3181426,15.5645635 27.3180874,15.5598708 27.3180874,15.5551698 C27.3180874,15.5446823 27.3181425,15.5342031 27.3182527,15.5237321 L27.3182527,14.110214 L27.3182527,7.05518969 C27.3182527,3.16488927 30.483142,2.30926389e-14 34.373277,2.30926389e-14 L45.6615475,2.30926389e-14 C49.5518479,2.30926389e-14 52.7167372,3.16488927 52.7165718,7.05518969 L52.7165718,14.110214 L52.7167372,21.1654037 C52.7167372,24.9186433 51.079808,28.2972553 48.4821682,30.6243332 L48.4821682,35.3816101 L65.3552942,36.6910541 C68.4709078,36.7333849 71.2802844,38.8568702 72.0873808,41.9781058 L79.6814615,72.3828697 C79.8790604,73.1659896 79.9792653,73.9745742 79.9789346,74.7844816 C79.9775881,79.7123952 76.3491988,83.8087448 71.6250562,84.5440781 Z M34.373277,36.1025567 L40.0174949,41.7467746 L45.6600593,36.1028236 L45.6600593,32.5408795 C43.9593419,33.3879449 42.0430776,33.8646459 40.0174949,33.8646459 C37.9914274,33.8646459 36.0745279,33.3875139 34.373277,32.5397307 L34.373277,36.1025567 Z M40.0174949,16.932323 L40.0174949,21.1654037 L41.4284667,21.1654037 L41.4284667,23.9875127 L38.6063578,23.9875127 C37.8275371,23.9875127 37.195386,23.3553616 37.195386,22.5765409 L37.195386,16.932323 L30.1403617,16.932323 L30.1403617,21.1654037 C30.1403617,26.6120227 34.5710413,31.042537 40.0174949,31.042537 C45.4639486,31.042537 49.8946282,26.6120227 49.8946282,21.1654037 L49.8946282,16.932323 L40.0174949,16.932323 Z M49.8947936,11.9132385 L49.8947936,7.05518969 C49.8947936,4.72137322 47.9955293,2.82210895 45.6617128,2.82210895 L34.3734424,2.82210895 C32.0396259,2.82210895 30.1403617,4.72137322 30.1403617,7.05518969 L30.1403617,11.9131014 C31.3202845,11.3400008 32.7864579,11 34.373277,11 L45.6615475,11 C47.2485606,11 48.7148537,11.340055 49.8947936,11.9132385 Z M21.6742002,81.8395059 C23.5141021,81.8395059 25.083153,80.6598653 25.6656977,79.0173969 L14.6188451,79.0173969 C13.8400244,79.0173969 13.2078733,78.3867341 13.2078733,77.6064252 L13.2078733,73.3733444 C13.2078733,72.5945237 12.5743994,71.9623726 11.7969015,71.9623726 C11.0194037,71.9623726 10.3859297,72.5945237 10.3859297,73.3733444 L10.3859297,81.8395059 L21.6742002,81.8395059 Z M69.6490601,81.8395059 L69.6487294,81.8395059 L69.6487294,73.3733444 C69.6487294,72.5945237 69.0165783,71.9623726 68.2377576,71.9623726 C67.4589369,71.9623726 66.8267858,72.5945237 66.8267858,73.3733444 L66.8267858,77.6064252 C66.8267858,78.3867341 66.1961229,79.0173969 65.415814,79.0173969 L54.3689615,79.0173969 C54.9516715,80.6598653 56.5208878,81.8395059 58.3607897,81.8395059 L69.6490601,81.8395059 Z" id="Combined-Shape" fill="#848484"></path>
                        <path d="M47.0725193,55.0300496 L47.0725193,62.085074 C47.0725193,62.8653829 46.4403682,63.4960458 45.6615475,63.4960458 L34.373277,63.4960458 C33.5944563,63.4960458 32.9623052,62.8653829 32.9623052,62.085074 L32.9623052,55.0300496 L16.0299823,55.0300496 L16.0299823,76.1954534 L64.0050076,76.1954534 L64.0050076,55.0300496 L47.0725193,55.0300496 Z M44.2505757,55.0300496 L35.7844142,55.0300496 L35.7844142,60.6741022 L44.2505757,60.6741022 L44.2505757,55.0300496 Z M32.9623052,45.1529164 L16.0299823,45.1529164 L16.0299823,52.2079407 L32.9623052,52.2079407 L32.9623052,45.1529164 Z M35.7844142,45.1529164 L35.7844142,52.2079407 L44.2505757,52.2079407 L44.2505757,45.1529164 L35.7844142,45.1529164 Z M47.0725193,45.1529164 L47.0725193,52.2079407 L64.0050076,52.2079407 L64.0050076,45.1529164 L47.0725193,45.1529164 Z M65.4159794,42.3308074 C66.1962883,42.3308074 66.8269512,42.9629585 66.8269512,43.7417792 L66.8269512,77.6064252 C66.8269512,78.3867341 66.1948001,79.0173969 65.4159794,79.0173969 L14.6190105,79.0173969 C13.8401898,79.0173969 13.2080387,78.3867341 13.2080387,77.6064252 L13.2080387,43.7417792 C13.2080387,42.9629585 13.8401898,42.3308074 14.6190105,42.3308074 L65.4159794,42.3308074 Z M58.3594669,70.5514008 L61.1815758,70.5514008 L61.1815758,73.3735098 L58.3594669,73.3735098 L58.3594669,70.5514008 Z M52.715249,70.5514008 L55.5373579,70.5514008 L55.5373579,73.3735098 L52.715249,73.3735098 L52.715249,70.5514008 Z" id="Combined-Shape" fill="#29A42E" fill-rule="nonzero"></path>
                    </g>
                </g>
            </g>
        </g>
    </g>
</svg>