<?xml version="1.0" encoding="UTF-8"?>
<svg width="80px" height="78px" viewBox="0 0 80 78" version="1.1" xmlns="http://www.w3.org/2000/svg" xmlns:xlink="http://www.w3.org/1999/xlink">
    <!-- Generator: Sketch 52.5 (67469) - http://www.bohemiancoding.com/sketch -->
    <title>Planning</title>
    <desc>Created with Sketch.</desc>
    <g id="Main" stroke="none" stroke-width="1" fill="none" fill-rule="evenodd">
        <g id="100-Orders" transform="translate(-955.000000, -260.000000)" fill-rule="nonzero">
            <g id="Stacked-Group" transform="translate(955.000000, 260.000000)">
                <g id="1">
                    <g id="Planning">
                        <path d="M73.5483871,20.6451613 L51.6129032,20.6451613 L51.6129032,11.6129032 C51.6129032,9.47895661 49.8758821,7.74193548 47.7419355,7.74193548 L41.0527974,7.74193548 C40.5185232,6.24369968 39.0990423,5.16129032 37.4193548,5.16129032 L36.1290323,5.16129032 L36.1290323,3.87096774 C36.1290323,1.73702113 34.3920111,0 32.2580645,0 L19.3548387,0 C17.2208921,0 15.483871,1.73702113 15.483871,3.87096774 L15.483871,5.16129032 L14.1935484,5.16129032 C12.513861,5.16129032 11.09438,6.24369968 10.5601058,7.74193548 L3.87096774,7.74193548 C1.73702113,7.74193548 0,9.47895661 0,11.6129032 L0,68.3870968 C0,70.5210434 1.73702113,72.2580645 3.87096774,72.2580645 L26.8064516,72.2580645 L44.1835937,43 L51.6129032,43 L51.6129032,33.5483871 L73.5483871,33.5483871 C77.1055948,33.5483871 80,30.6539819 80,27.0967742 C80,23.5395665 77.1055948,20.6451613 73.5483871,20.6451613 Z M26.8064516,72.2580645 L26.8064516,43.8709677 L10.3225806,43.8709677 L10.3225806,61.9354839 L26.8064516,61.9354839 L26.8064516,64.516129 L7.74193548,64.516129 L7.74193548,15.483871 L10.5601058,15.483871 C11.09438,16.9821068 12.513861,18.0645161 14.1935484,18.0645161 L37.4193548,18.0645161 C39.0990423,18.0645161 40.5185232,16.9821068 41.0527974,15.483871 L43.8709677,15.483871 L43.8709677,20.6451613 L37.1843498,20.6451613 L27.8528226,24.1444052 C26.6299144,24.6024445 25.8064516,25.7894405 25.8064516,27.0967742 C25.8064516,28.4041079 26.6299144,29.5911039 27.8515626,30.0491432 L37.1843498,33.5483871 L43.8709677,33.5483871 C43.9569892,39.6740066 44,42.7368164 44,42.7368164 L44.1835937,43 L26.8064516,72.2580645 Z M26.8064516,46.4516129 L26.8064516,59.3548387 L12.9032258,59.3548387 L12.9032258,46.4516129 L26.8064516,46.4516129 Z M28.7575605,27.6323084 C28.5357863,27.5485131 28.3870968,27.3342994 28.3870968,27.0967742 C28.3870968,26.859249 28.5357863,26.6450353 28.7588206,26.56124 L36.1290323,23.7972531 L36.1290323,30.3962953 L28.7575605,27.6323084 Z M38.7096774,30.9677419 L38.7096774,28.3870968 L64.516129,28.3870968 L64.516129,30.9677419 L38.7096774,30.9677419 Z M64.516129,25.8064516 L38.7096774,25.8064516 L38.7096774,23.2258065 L64.516129,23.2258065 L64.516129,25.8064516 Z M49.0322581,11.6129032 L49.0322581,20.6451613 L46.4516129,20.6451613 L46.4516129,12.9032258 L41.2903226,12.9032258 L41.2903226,10.3225806 L47.7419355,10.3225806 C48.453881,10.3225806 49.0322581,10.9022177 49.0322581,11.6129032 Z M18.0645161,3.87096774 C18.0645161,3.16028226 18.6428932,2.58064516 19.3548387,2.58064516 L32.2580645,2.58064516 C32.97001,2.58064516 33.5483871,3.16028226 33.5483871,3.87096774 L33.5483871,5.16129032 L18.0645161,5.16129032 L18.0645161,3.87096774 Z M12.9032258,9.03225806 C12.9032258,8.32157258 13.4816029,7.74193548 14.1935484,7.74193548 L37.4193548,7.74193548 C38.1313003,7.74193548 38.7096774,8.32157258 38.7096774,9.03225806 L38.7096774,14.1935484 C38.7096774,14.9042339 38.1313003,15.483871 37.4193548,15.483871 L14.1935484,15.483871 C13.4816029,15.483871 12.9032258,14.9042339 12.9032258,14.1935484 L12.9032258,9.03225806 Z M3.87096774,69.6774194 C3.15902226,69.6774194 2.58064516,69.0990423 2.58064516,68.3870968 L2.58064516,11.6129032 C2.58064516,10.9022177 3.15902226,10.3225806 3.87096774,10.3225806 L10.3225806,10.3225806 L10.3225806,12.9032258 L5.16129032,12.9032258 L5.16129032,67.0967742 L26.8064516,67.0967742 L26.8064516,69.6774194 L3.87096774,69.6774194 Z M49.0322581,41.2903226 L46.4516129,41.2903226 L46.4516129,33.5483871 L49.0322581,33.5483871 L49.0322581,41.2903226 Z M73.5483871,30.9677419 L67.0967742,30.9677419 L67.0967742,23.2258065 L73.5483871,23.2258065 C75.6823337,23.2258065 77.4193548,24.9628276 77.4193548,27.0967742 C77.4193548,29.2307208 75.6823337,30.9677419 73.5483871,30.9677419 Z M15.483871,10.3225806 L18.0645161,10.3225806 L18.0645161,12.9032258 L15.483871,12.9032258 L15.483871,10.3225806 Z M33.5483871,10.3225806 L36.1290323,10.3225806 L36.1290323,12.9032258 L33.5483871,12.9032258 L33.5483871,10.3225806 Z M10.3225806,20.6451613 L23.2258065,20.6451613 L23.2258065,23.2258065 L10.3225806,23.2258065 L10.3225806,20.6451613 Z M10.3225806,25.8064516 L23.2258065,25.8064516 L23.2258065,28.3870968 L10.3225806,28.3870968 L10.3225806,25.8064516 Z M10.3225806,30.9677419 L23.2258065,30.9677419 L23.2258065,33.5483871 L10.3225806,33.5483871 L10.3225806,30.9677419 Z M10.3225806,36.1290323 L23.2258065,36.1290323 L23.2258065,38.7096774 L10.3225806,38.7096774 L10.3225806,36.1290323 Z" id="Shape" fill="#848484"></path>
                        <path d="M36,43 L30,43 C28.8954305,43 28,43.8954305 28,45 L28,74 C28,75.1045695 28.8954305,76 30,76 L62,76 C63.1045695,76 64,75.1045695 64,74 L64,45 C64,43.8954305 63.1045695,43 62,43 L56,43 L56,48 C56,49.1045695 55.1045695,50 54,50 L38,50 C36.8954305,50 36,49.1045695 36,48 L36,43 Z M29,41 L63,41 C64.6568542,41 66,42.3431458 66,44 L66,75 C66,76.6568542 64.6568542,78 63,78 L29,78 C27.3431458,78 26,76.6568542 26,75 L26,44 C26,42.3431458 27.3431458,41 29,41 Z M38,43 L38,46 C38,47.1045695 38.8954305,48 40,48 L52,48 C53.1045695,48 54,47.1045695 54,46 L54,43 L38,43 Z M41,46 L44,46 L44,48 L41,48 L41,46 Z M48,46 L51,46 L51,48 L48,48 L48,46 Z M31,70 L43,70 L43,73 L31,73 L31,70 Z M31,65 L38,65 L38,68 L31,68 L31,65 Z" id="Combined-Shape" fill="#29A42E"></path>
                    </g>
                </g>
            </g>
        </g>
    </g>
</svg>