<?xml version="1.0" encoding="UTF-8"?>
<svg width="19px" height="20px" viewBox="0 0 19 20" version="1.1" xmlns="http://www.w3.org/2000/svg" xmlns:xlink="http://www.w3.org/1999/xlink">
    <!-- Generator: Sketch 52.5 (67469) - http://www.bohemiancoding.com/sketch -->
    <title>facebook</title>
    <desc>Created with Sketch.</desc>
    <g id="Main" stroke="none" stroke-width="1" fill="none" fill-rule="evenodd">
        <g id="000-Home" transform="translate(-1206.000000, -4540.000000)" fill="#B7B7B7" fill-rule="nonzero">
            <g id="Footer" transform="translate(0.000000, 4325.000000)">
                <g id="Social" transform="translate(1137.000000, 215.000000)">
                    <path d="M86.48,20 C87.3194732,20 88,19.2836556 88,18.4 L88,1.6 C88,0.7163444 87.3194732,0 86.48,0 L70.52,0 C69.6805272,0 69,0.7163444 69,1.6 L69,18.4 C69,19.2836556 69.6805272,20 70.52,20 L78.5,20 L78.5,12.8 L76.22,12.8 L76.22,9.6 L78.5,9.6 L78.5,8 C78.4565131,6.92575403 78.8428859,5.88152434 79.565167,5.12122841 C80.2874481,4.36093247 81.2794663,3.95422428 82.3,4 L84.58,4 L84.58,7.6 L82.68,7.6 C82.4762511,7.59218903 82.2786008,7.67396351 82.1344331,7.82571899 C81.9902653,7.97747446 81.9125796,8.18552754 81.92,8.4 L81.92,9.6 L84.58,9.6 L84.58,12.8 L81.92,12.8 L81.92,20 L86.48,20 Z" id="facebook"></path>
                </g>
            </g>
        </g>
    </g>
</svg>