<?xml version="1.0" encoding="UTF-8"?>
<svg width="20px" height="20px" viewBox="0 0 20 20" version="1.1" xmlns="http://www.w3.org/2000/svg" xmlns:xlink="http://www.w3.org/1999/xlink">
    <!-- Generator: Sketch 52.5 (67469) - http://www.bohemiancoding.com/sketch -->
    <title>Instagram</title>
    <desc>Created with Sketch.</desc>
    <g id="Main" stroke="none" stroke-width="1" fill="none" fill-rule="evenodd">
        <g id="000-Home" transform="translate(-1176.000000, -4540.000000)" fill="#B7B7B7" fill-rule="nonzero">
            <g id="Footer" transform="translate(0.000000, 4325.000000)">
                <g id="Social" transform="translate(1137.000000, 215.000000)">
                    <path d="M49.0000198,3.52562979e-17 L48.9999405,0 C51.7157757,0 52.056436,0.0115115681 53.1228751,0.0603761901 C54.1872897,0.108764471 54.91418,0.277786048 55.5502883,0.524808422 C56.2175981,0.775958031 56.8220851,1.16966404 57.321587,1.67846602 C57.8302855,2.17796012 58.2239052,2.78240832 58.4749973,3.44965971 C58.7222162,4.0857334 58.8912364,4.81262938 58.9398228,5.87705248 C58.9884885,6.94350003 59,7.28420275 59,10.0000198 C59,12.7158369 58.9884885,13.0563809 58.9398228,14.1229872 C58.8912364,15.1873706 58.7222162,15.9142666 58.4749973,16.55038 C57.955491,17.893611 56.8936277,18.9554827 55.5504074,19.4749931 C54.9143387,19.722214 54.1874485,19.8912355 53.1230339,19.9398223 C52.0565948,19.9884884 51.7158948,20 49.0000992,20 C46.2843037,20 45.9437625,19.9884884 44.8771646,19.9398223 C43.8127896,19.8912355 43.0858994,19.722214 42.4497911,19.4749931 C41.782545,19.2238991 41.1781016,18.8302762 40.6786115,18.3215737 C40.1699159,17.8220771 39.7762967,17.2176296 39.5252012,16.55038 C39.2779823,15.9143063 39.1089621,15.1874103 39.0603757,14.1229872 C39.0115115,13.0565397 39,12.7158766 39,10.0000198 C39,7.28416306 39.0115115,6.94350003 39.0603757,5.87705248 C39.1087636,4.81262938 39.2777838,4.0857334 39.5248043,3.44962002 C39.7759916,2.78234082 40.1697209,2.17789073 40.6785321,1.67842633 C41.1780238,1.16972576 41.7824668,0.776103223 42.4497117,0.525006897 C43.0857803,0.277786048 43.8126706,0.108764471 44.8770852,0.0601777148 C45.9435243,0.0115115681 46.2841846,3.52562979e-17 49.0000198,3.52562979e-17 Z M48.9999405,4.86486808 C46.163897,4.86486808 43.8648295,7.16395384 43.8648295,10.0000198 C43.8648295,12.8360859 46.163897,15.1351716 48.9999405,15.1351716 C51.8359839,15.1351716 54.1350515,12.8360859 54.1350515,10.0000198 C54.1350515,7.16395384 51.8359839,4.86486808 48.9999405,4.86486808 Z M48.9999405,13.3333333 C47.159022,13.3333114 45.6666785,11.8409264 45.6666931,9.99999338 C45.6667077,8.15906035 47.159075,6.66669905 48.9999934,6.66670636 C50.8409118,6.66671367 52.3332672,8.15908681 52.3332672,10.0000198 C52.3332453,11.8409645 50.8408705,13.3333333 48.9999405,13.3333333 Z M54.3379313,5.86196836 C55.0006577,5.86196836 55.5379035,5.32471823 55.5379035,4.66198662 C55.5379035,3.999255 55.0006577,3.46200488 54.3379313,3.46200488 C53.675205,3.46200488 53.1379591,3.999255 53.1379591,4.66198662 C53.1379591,5.32471823 53.675205,5.86196836 54.3379313,5.86196836 Z" id="Instagram"></path>
                </g>
            </g>
        </g>
    </g>
</svg>