<?xml version="1.0" encoding="UTF-8"?>
<svg width="29px" height="20px" viewBox="0 0 29 20" version="1.1" xmlns="http://www.w3.org/2000/svg" xmlns:xlink="http://www.w3.org/1999/xlink">
    <!-- Generator: Sketch 52.5 (67469) - http://www.bohemiancoding.com/sketch -->
    <title>YouTube</title>
    <desc>Created with Sketch.</desc>
    <g id="Main" stroke="none" stroke-width="1" fill="none" fill-rule="evenodd">
        <g id="000-Home" transform="translate(-1137.000000, -4540.000000)" fill="#B7B7B7" fill-rule="nonzero">
            <g id="Footer" transform="translate(0.000000, 4325.000000)">
                <g id="Social" transform="translate(1137.000000, 215.000000)">
                    <path d="M28.4026813,3.12941176 C29.023766,5.36470588 28.9998781,10.0235294 28.9998781,10.0235294 C28.9998781,10.0235294 28.9998781,14.6588235 28.4026813,16.8941176 C28.0682511,18.1176471 27.0888483,19.0823529 25.8466789,19.4117647 C23.5773309,20 14.4999391,20 14.4999391,20 C14.4999391,20 5.4464351,20 3.15319927,19.3882353 C1.91102986,19.0588235 0.931627057,18.0941176 0.597196831,16.8705882 C0,14.6588235 0,10 0,10 C0,10 0,5.36470588 0.597196831,3.12941176 C0.931627057,1.90588235 1.93491773,0.917647059 3.15319927,0.588235294 C5.42254723,0 14.4999391,0 14.4999391,0 C14.4999391,0 23.5773309,0 25.8466789,0.611764706 C27.0888483,0.941176471 28.0682511,1.90588235 28.4026813,3.12941176 Z M19.1580743,10 L11.6095064,5.71764706 L11.6095064,14.2823529 L19.1580743,10 Z" id="YouTube"></path>
                </g>
            </g>
        </g>
    </g>
</svg>