<?xml version="1.0" encoding="UTF-8"?>
<svg width="99px" height="97px" viewBox="0 0 99 97" version="1.1" xmlns="http://www.w3.org/2000/svg" xmlns:xlink="http://www.w3.org/1999/xlink">
    <!-- Generator: Sketch 52.5 (67469) - http://www.bohemiancoding.com/sketch -->
    <title>Ribbon</title>
    <desc>Created with Sketch.</desc>
    <defs>
        <filter x="-10.2%" y="-3.9%" width="120.4%" height="107.7%" filterUnits="objectBoundingBox" id="filter-1">
            <feOffset dx="0" dy="2" in="SourceAlpha" result="shadowOffsetOuter1"></feOffset>
            <feGaussianBlur stdDeviation="5" in="shadowOffsetOuter1" result="shadowBlurOuter1"></feGaussianBlur>
            <feColorMatrix values="0 0 0 0 0   0 0 0 0 0   0 0 0 0 0  0 0 0 0.15 0" type="matrix" in="shadowBlurOuter1" result="shadowMatrixOuter1"></feColorMatrix>
            <feMerge>
                <feMergeNode in="shadowMatrixOuter1"></feMergeNode>
                <feMergeNode in="SourceGraphic"></feMergeNode>
            </feMerge>
        </filter>
    </defs>
    <g id="Main" stroke="none" stroke-width="1" fill="none" fill-rule="evenodd">
        <g id="000-Home" transform="translate(-723.000000, -3235.000000)" fill-rule="nonzero">
            <g id="Price" transform="translate(0.000000, 2670.000000)">
                <g id="Group-2" transform="translate(170.000000, 109.000000)">
                    <g id="2" transform="translate(179.000000, 0.000000)">
                        <g id="Bow" filter="url(#filter-1)" transform="translate(291.337585, 290.811394) rotate(-45.000000) translate(-291.337585, -290.811394) translate(178.337585, -7.188606)">
                            <g id="Ribbon" transform="translate(56.461405, 539.627195) scale(-1, -1) rotate(45.000000) translate(-56.461405, -539.627195) translate(16.461405, 500.127195)">
                                <polygon id="Path-2" fill="#990915" transform="translate(2.500000, 73.777100) scale(-1, -1) translate(-2.500000, -73.777100) " points="-2.27373675e-13 78.626709 5 73.5541992 -2.27373675e-13 68.9274902"></polygon>
                                <polygon id="Path-2" fill="#990915" transform="translate(74.000000, 2.500000) scale(1, -1) rotate(90.000000) translate(-74.000000, -2.500000) " points="71.5 7.84960938 76.5 2.5 71.5 -2.84960937"></polygon>
                                <polygon id="Path-2" fill="#DA1424" transform="translate(37.500000, 37.500000) scale(-1, -1) translate(-37.500000, -37.500000) " points="25.28125 75 75 25 75 5.25801624e-13 -2.13162821e-13 75"></polygon>
                            </g>
                        </g>
                    </g>
                </g>
            </g>
        </g>
    </g>
</svg>