<?xml version="1.0" encoding="UTF-8"?>
<svg width="1280px" height="688px" viewBox="0 0 1280 688" version="1.1" xmlns="http://www.w3.org/2000/svg" xmlns:xlink="http://www.w3.org/1999/xlink">
    <!-- Generator: Sketch 52.5 (67469) - http://www.bohemiancoding.com/sketch -->
    <title>Snow</title>
    <desc>Created with Sketch.</desc>
    <g id="Main" stroke="none" stroke-width="1" fill="none" fill-rule="evenodd" opacity="0.200000003">
        <g id="000-Home" transform="translate(0.000000, -2691.000000)" fill="#FFFFFF" fill-rule="nonzero">
            <g id="Price" transform="translate(0.000000, 2670.000000)">
                <g id="bg">
                    <path d="M1167.71468,663.190629 C1166.85962,662.930318 1166.37838,662.029066 1166.63979,661.177627 C1166.90121,660.326187 1167.8063,659.846983 1168.66137,660.107294 C1169.51643,660.367605 1169.99767,661.268857 1169.73625,662.120297 C1169.47483,662.971736 1168.56975,663.450941 1167.71468,663.190629 Z M1208.04791,506.597541 C1208.73285,507.169843 1208.8222,508.18669 1208.24746,508.868732 C1207.67272,509.550775 1206.65155,509.639737 1205.9666,509.067436 C1205.28165,508.495134 1205.19231,507.478287 1205.76705,506.796244 C1206.34179,506.114202 1207.36296,506.025239 1208.04791,506.597541 Z M1210.7251,443.350725 C1210.65958,442.105952 1211.61986,441.043981 1212.86993,440.978745 C1214.12,440.913509 1215.18649,441.869713 1215.252,443.114485 C1215.31752,444.359257 1214.35724,445.421229 1213.10717,445.486465 C1211.8571,445.5517 1210.79061,444.595497 1210.7251,443.350725 Z M1208.25675,414.264496 C1208.39662,413.385115 1209.22592,412.785144 1210.10905,412.924424 C1210.99217,413.063705 1211.5947,413.889494 1211.45482,414.768875 C1211.31495,415.648257 1210.48565,416.248228 1209.60252,416.108947 C1208.7194,415.969667 1208.11687,415.143878 1208.25675,414.264496 Z M1263.59954,337.932341 C1263.34319,337.267376 1263.67674,336.521388 1264.34454,336.266132 C1265.01233,336.010876 1265.7615,336.34301 1266.01784,337.007976 C1266.27418,337.672942 1265.94063,338.418929 1265.27284,338.674186 C1264.60504,338.929442 1263.85588,338.597307 1263.59954,337.932341 Z M1141.07098,148.271062 C1140.97752,147.385597 1141.62262,146.592339 1142.51185,146.499273 C1143.40109,146.406207 1144.19772,147.048574 1144.29118,147.93404 C1144.38465,148.819506 1143.73954,149.612763 1142.85031,149.705829 C1141.96108,149.798895 1141.16444,149.156528 1141.07098,148.271062 Z M1166.0742,127.663713 C1167.06903,127.263479 1168.20133,127.742077 1168.60327,128.732691 C1169.00521,129.723306 1168.52457,130.850811 1167.52974,131.251045 C1166.53491,131.651279 1165.40261,131.172682 1165.00067,130.182067 C1164.59873,129.191453 1165.07937,128.063948 1166.0742,127.663713 Z M1268.20826,59.5850639 C1268.02236,58.7141767 1268.58066,57.8581196 1269.45525,57.6730068 C1270.32984,57.487894 1271.18954,58.043824 1271.37544,58.9147112 C1271.56135,59.7855984 1271.00305,60.6416555 1270.12846,60.8267683 C1269.25386,61.0118811 1268.39416,60.4559511 1268.20826,59.5850639 Z M1080.81682,596.76476 C1081.53202,596.777191 1082.10168,597.364593 1082.0892,598.076759 C1082.07672,598.788926 1081.48681,599.356173 1080.77162,599.343742 C1080.05642,599.331311 1079.48676,598.743909 1079.49924,598.031743 C1079.51173,597.319577 1080.10163,596.752329 1080.81682,596.76476 Z M979.633376,536.138452 C979.199892,536.917163 978.214526,537.198515 977.432499,536.766868 C976.650473,536.335221 976.367924,535.354031 976.801408,534.57532 C977.234892,533.796608 978.220258,533.515256 979.002285,533.946903 C979.784311,534.37855 980.06686,535.35974 979.633376,536.138452 Z M977.70548,382.883181 C976.63249,383.525166 975.240012,383.179454 974.595295,382.111012 C973.950578,381.042569 974.297761,379.655994 975.370751,379.014009 C976.443741,378.372024 977.836218,378.717736 978.480936,379.786178 C979.125653,380.854621 978.77847,382.241196 977.70548,382.883181 Z M1036.99982,340.314369 C1037.89382,340.329908 1038.6059,341.064161 1038.59029,341.954368 C1038.57469,342.844576 1037.83731,343.553635 1036.94331,343.538097 C1036.04931,343.522558 1035.33724,342.788306 1035.35284,341.898098 C1035.36845,341.00789 1036.10582,340.298831 1036.99982,340.314369 Z M1039.89963,314.036131 C1039.17626,314.559461 1038.16381,314.399784 1037.63825,313.679481 C1037.11269,312.959178 1037.27305,311.951014 1037.99642,311.427683 C1038.71979,310.904353 1039.73224,311.06403 1040.2578,311.784333 C1040.78336,312.504636 1040.623,313.5128 1039.89963,314.036131 Z M1019.46747,285.550726 C1019.22611,284.509698 1019.87796,283.470943 1020.92342,283.230602 C1021.96888,282.990262 1023.01205,283.639348 1023.25342,284.680377 C1023.49478,285.721405 1022.84293,286.76016 1021.79747,287.000501 C1020.75201,287.240841 1019.70884,286.591755 1019.46747,285.550726 Z M1100.65131,246.82562 C1099.44801,247.169197 1098.19284,246.476392 1097.8478,245.278198 C1097.50276,244.080004 1098.19851,242.830152 1099.40181,242.486575 C1100.6051,242.142999 1101.86027,242.835803 1102.20531,244.033997 C1102.55035,245.232191 1101.8546,246.482043 1100.65131,246.82562 Z M1043.22916,150.712848 C1043.20419,150.001008 1043.76347,149.403795 1044.47834,149.378937 C1045.19322,149.354079 1045.79297,149.910989 1045.81793,150.62283 C1045.8429,151.33467 1045.28362,151.931883 1044.56875,151.956741 C1043.85388,151.981599 1043.25412,151.424689 1043.22916,150.712848 Z M1088.01734,118.943579 C1087.70363,117.921851 1088.28113,116.840349 1089.3072,116.527975 C1090.33328,116.215602 1091.41938,116.790647 1091.73309,117.812374 C1092.04679,118.834102 1091.4693,119.915604 1090.44322,120.227978 C1089.41715,120.540351 1088.33104,119.965306 1088.01734,118.943579 Z M813.28575,209.008957 C813.176782,209.892663 812.369012,210.521088 811.481544,210.412583 C810.594075,210.304077 809.962976,209.49973 810.071943,208.616023 C810.180911,207.732316 810.988681,207.103892 811.876149,207.212397 C812.763617,207.320903 813.394717,208.12525 813.28575,209.008957 Z M848.826453,159.238228 C848.126778,159.386318 847.439018,158.941574 847.290297,158.244864 C847.141576,157.548155 847.588213,156.863309 848.287889,156.715219 C848.987564,156.567128 849.675324,157.011872 849.824045,157.708582 C849.972765,158.405292 849.526128,159.090138 848.826453,159.238228 Z M742.201307,535.579601 C741.510374,535.395251 741.100344,534.688068 741.285479,534.000063 C741.470613,533.312059 742.180807,532.903767 742.871739,533.088117 C743.562672,533.272467 743.972703,533.97965 743.787568,534.667655 C743.602433,535.355659 742.89224,535.763952 742.201307,535.579601 Z M749.980811,508.225022 C750.67487,508.397337 751.097232,509.097287 750.924184,509.788404 C750.751136,510.479521 750.048206,510.900093 749.354148,510.727778 C748.660089,510.555463 748.237727,509.855513 748.410775,509.164396 C748.583823,508.473279 749.286752,508.052707 749.980811,508.225022 Z M649.617019,464.098695 C650.325364,463.999566 650.980293,464.490999 651.079845,465.196342 C651.179396,465.901684 650.685871,466.553838 649.977526,466.652968 C649.269181,466.752097 648.614252,466.260664 648.5147,465.555321 C648.415149,464.849978 648.908674,464.197825 649.617019,464.098695 Z M665.055784,443.42232 C664.814421,444.463348 663.771245,445.112435 662.725785,444.872094 C661.680326,444.631754 661.028477,443.592999 661.26984,442.55197 C661.511204,441.510942 662.55438,440.861855 663.599839,441.102196 C664.645299,441.342536 665.297148,442.381291 665.055784,443.42232 Z M696.209785,381.918188 C695.918684,382.760025 694.997352,383.207484 694.151933,382.917616 C693.306514,382.627749 692.85715,381.710322 693.148251,380.868486 C693.439353,380.026649 694.360684,379.57919 695.206104,379.869058 C696.051523,380.158925 696.500886,381.076352 696.209785,381.918188 Z M747.251559,356.066622 C746.422534,356.40015 745.478946,356.001319 745.143998,355.175807 C744.80905,354.350295 745.209579,353.410707 746.038605,353.077179 C746.86763,352.74365 747.811217,353.142482 748.146166,353.967994 C748.481114,354.793506 748.080585,355.733093 747.251559,356.066622 Z M772.137506,89.3841118 C771.42318,89.4213894 770.813756,88.8749875 770.77632,88.163689 C770.738884,87.4523904 771.287611,86.8455496 772.001937,86.808272 C772.716263,86.7709945 773.325687,87.3173964 773.363123,88.0286949 C773.400559,88.7399934 772.851832,89.3468343 772.137506,89.3841118 Z M628.755304,605.131929 C629.719674,604.663568 630.882747,605.062349 631.353102,606.022631 C631.823456,606.982914 631.422978,608.141058 630.458608,608.609419 C629.494239,609.07778 628.331165,608.678999 627.860811,607.718717 C627.390456,606.758434 627.790935,605.60029 628.755304,605.131929 Z M618.675135,539.612469 C618.78729,538.54991 619.74325,537.779069 620.810332,537.890749 C621.877413,538.002428 622.651535,538.954337 622.53938,540.016896 C622.427225,541.079455 621.471265,541.850295 620.404183,541.738616 C619.337102,541.626936 618.562981,540.675028 618.675135,539.612469 Z M515.012049,514.185719 C514.134344,514.015833 513.561129,513.169609 513.731738,512.295624 C513.902347,511.421638 514.752173,510.850853 515.629878,511.020738 C516.507583,511.190624 517.080798,512.036848 516.910189,512.910833 C516.739581,513.784819 515.889755,514.355604 515.012049,514.185719 Z M537.467176,479.467507 C536.599602,479.6829 535.720941,479.157185 535.504631,478.293288 C535.288321,477.429392 535.816273,476.554455 536.683847,476.339061 C537.55142,476.123668 538.430081,476.649383 538.646392,477.513279 C538.862702,478.377176 538.334749,479.252113 537.467176,479.467507 Z M545.186425,449.270461 C544.213994,448.818931 543.793278,447.667923 544.24673,446.699613 C544.700183,445.731302 545.85609,445.31237 546.828521,445.7639 C547.800953,446.215431 548.221669,447.366439 547.768216,448.334749 C547.314764,449.303059 546.158857,449.721992 545.186425,449.270461 Z M616.004222,403.447204 C615.654857,402.627638 616.038857,401.681233 616.861911,401.333348 C617.684964,400.985463 618.635398,401.367836 618.984763,402.187401 C619.334129,403.006967 618.950129,403.953372 618.127075,404.301257 C617.304021,404.649142 616.353588,404.266769 616.004222,403.447204 Z M545.618694,353.141927 C544.553732,353.272133 543.584407,352.518023 543.453646,351.457575 C543.322886,350.397127 544.080205,349.43191 545.145167,349.301704 C546.210129,349.171497 547.179453,349.925607 547.310214,350.986055 C547.440975,352.046503 546.683656,353.01172 545.618694,353.141927 Z M530.665608,322.497224 C529.980663,323.069526 528.959488,322.980563 528.384751,322.29852 C527.810013,321.616478 527.899354,320.599631 528.5843,320.027329 C529.269245,319.455028 530.29042,319.54399 530.865158,320.226033 C531.439895,320.908075 531.350554,321.924922 530.665608,322.497224 Z M486.733419,189.341349 C486.419716,188.319622 486.997209,187.238119 488.023285,186.925746 C489.049361,186.613372 490.135467,187.188418 490.44917,188.210145 C490.762873,189.231873 490.18538,190.313375 489.159304,190.625748 C488.133228,190.938122 487.047122,190.363077 486.733419,189.341349 Z M490.93973,159.451289 C491.65768,160.245274 491.593302,161.468472 490.795938,162.18338 C489.998574,162.898287 488.770169,162.834182 488.052219,162.040197 C487.334269,161.246212 487.398647,160.023013 488.196011,159.308106 C488.993375,158.593199 490.22178,158.657304 490.93973,159.451289 Z M532.599213,125.8684 C531.714067,126.749795 530.278961,126.749795 529.393814,125.8684 C528.508668,124.987005 528.508668,123.557981 529.393814,122.676586 C530.278961,121.795191 531.714067,121.795191 532.599213,122.676586 C533.484359,123.557981 533.484359,124.987005 532.599213,125.8684 Z M597.515964,25.9393982 C596.470505,26.1797386 595.427329,25.5306525 595.185965,24.4896239 C594.944602,23.4485952 595.596451,22.4098403 596.64191,22.1694999 C597.68737,21.9291595 598.730546,22.5782456 598.971909,23.6192743 C599.213273,24.6603029 598.561424,25.6990578 597.515964,25.9393982 Z M375.848309,627.137746 C376.308821,626.374573 377.303448,626.127636 378.069869,626.586196 C378.83629,627.044757 379.084279,628.035168 378.623766,628.798341 C378.163254,629.561514 377.168627,629.808452 376.402206,629.349891 C375.635784,628.89133 375.387796,627.900919 375.848309,627.137746 Z M421.321054,609.978209 C421.726982,610.771511 421.410216,611.742284 420.613538,612.146492 C419.816859,612.550699 418.841955,612.235276 418.436027,611.441974 C418.030099,610.648672 418.346865,609.677899 419.143543,609.273692 C419.940221,608.869484 420.915126,609.184908 421.321054,609.978209 Z M443.019753,569.551975 C442.490725,570.68167 441.142167,571.170425 440.007663,570.643639 C438.87316,570.116854 438.382325,568.774011 438.911353,567.644316 C439.44038,566.514621 440.788939,566.025866 441.923442,566.552651 C443.057945,567.079437 443.54878,568.42228 443.019753,569.551975 Z M352.39573,544.839375 C353.249446,545.750993 353.199361,547.179146 352.283863,548.029244 C351.368365,548.879342 349.934133,548.829469 349.080417,547.917851 C348.226701,547.006233 348.276785,545.57808 349.192284,544.727982 C350.107782,543.877884 351.542014,543.927757 352.39573,544.839375 Z M409.378201,508.411594 C408.486246,508.349486 407.813736,507.579131 407.876108,506.690956 C407.938479,505.802782 408.712113,505.133122 409.604068,505.195229 C410.496023,505.257337 411.168533,506.027692 411.106162,506.915867 C411.04379,507.804041 410.270156,508.473701 409.378201,508.411594 Z M409.409861,418.676289 C408.989415,418.100047 409.117701,417.293515 409.696396,416.874851 C410.275091,416.456186 411.085055,416.583928 411.505501,417.160171 C411.925948,417.736413 411.797662,418.542944 411.218967,418.961609 C410.640272,419.380273 409.830308,419.252531 409.409861,418.676289 Z M393.458324,353.564431 C394.28735,353.89796 394.687879,354.837548 394.352931,355.66306 C394.017983,356.488572 393.074396,356.887403 392.24537,356.553875 C391.416345,356.220346 391.015816,355.280758 391.350764,354.455246 C391.685712,353.629734 392.629299,353.230903 393.458324,353.564431 Z M420.345561,304.453058 C420.792628,303.681998 421.782775,303.417814 422.557117,303.862985 C423.331458,304.308157 423.596767,305.294107 423.149701,306.065167 C422.702635,306.836227 421.712488,307.100412 420.938146,306.65524 C420.163804,306.210069 419.898495,305.224118 420.345561,304.453058 Z M390.47517,242.918122 C390.512616,243.985883 389.673696,244.881702 388.60139,244.918989 C387.529084,244.956276 386.629453,244.120912 386.592007,243.05315 C386.554561,241.985389 387.393481,241.089571 388.465787,241.052284 C389.538093,241.014997 390.437724,241.850361 390.47517,242.918122 Z M391.180506,227.870066 C390.280646,227.288167 390.024896,226.090057 390.609271,225.194011 C391.193647,224.297965 392.396857,224.043299 393.296717,224.625198 C394.196576,225.207097 394.452326,226.405208 393.867951,227.301253 C393.283575,228.197299 392.080365,228.451965 391.180506,227.870066 Z M349.215361,161.868683 C348.189958,162.583635 346.776655,162.335488 346.05866,161.31443 C345.340665,160.293373 345.589869,158.88606 346.615272,158.171108 C347.640675,157.456156 349.053978,157.704303 349.771973,158.72536 C350.489968,159.746418 350.240764,161.153731 349.215361,161.868683 Z M337.373332,81.5710572 C336.67846,81.010746 336.57131,79.9956065 337.134006,79.3036798 C337.696702,78.6117531 338.716163,78.5050576 339.411034,79.0653689 C340.105906,79.6256801 340.213056,80.6408195 339.65036,81.3327462 C339.087664,82.0246729 338.068203,82.1313684 337.373332,81.5710572 Z M451.697441,33.3731478 C451.641287,32.3062 452.464378,31.3959388 453.535867,31.3400224 C454.607356,31.2841061 455.521492,32.103709 455.577646,33.1706567 C455.6338,34.2376045 454.810709,35.1478658 453.73922,35.2037821 C452.667731,35.2596985 451.753596,34.4400956 451.697441,33.3731478 Z M272.275172,663.049644 C271.206296,662.956525 270.415609,662.018215 270.509123,660.953869 C270.602638,659.889522 271.544942,659.102186 272.613818,659.195305 C273.682695,659.288423 274.473382,660.226733 274.379867,661.29108 C274.286353,662.355426 273.344049,663.142762 272.275172,663.049644 Z M296.870576,570.315197 C296.120693,570.800112 295.118018,570.58789 294.631038,569.841186 C294.144058,569.094481 294.357184,568.096055 295.107066,567.61114 C295.856949,567.126224 296.859625,567.338446 297.346604,568.08515 C297.833584,568.831855 297.620459,569.830281 296.870576,570.315197 Z M246.695598,532.872026 C246.419295,533.718793 245.505946,534.182195 244.655575,533.907064 C243.805204,533.631933 243.33983,532.722455 243.616132,531.875688 C243.892434,531.028921 244.805783,530.565519 245.656154,530.84065 C246.506525,531.115781 246.9719,532.025259 246.695598,532.872026 Z M293.634009,242.512699 C292.750885,242.65198 291.921581,242.052009 291.781708,241.172627 C291.641835,240.293246 292.244359,239.467457 293.127484,239.328176 C294.010608,239.188896 294.839912,239.788867 294.979785,240.668248 C295.119658,241.54763 294.517134,242.373419 293.634009,242.512699 Z M162.580083,157.924203 C163.828819,157.837253 164.911908,158.774777 164.999228,160.018221 C165.086548,161.261665 164.145034,162.340163 162.896297,162.427113 C161.64756,162.514063 160.564472,161.576539 160.477152,160.333095 C160.389832,159.089651 161.331346,158.011153 162.580083,157.924203 Z M170.004718,96.4463376 C169.701883,97.6557925 168.471757,98.391794 167.257155,98.0902431 C166.042552,97.7886921 165.303418,96.5637799 165.606253,95.354325 C165.909087,94.1448701 167.139213,93.4088686 168.353815,93.7104196 C169.568418,94.0119705 170.307552,95.2368828 170.004718,96.4463376 Z M182.507444,59.5623299 C182.600958,60.6266763 181.810271,61.5649867 180.741395,61.658105 C179.672518,61.7512232 178.730214,60.9638872 178.636699,59.8995409 C178.543185,58.8351945 179.333872,57.896884 180.402748,57.8037658 C181.471625,57.7106476 182.413929,58.4979835 182.507444,59.5623299 Z M131.407199,668.954201 C130.859242,669.412043 130.042302,669.340873 129.582512,668.795239 C129.122722,668.249605 129.194195,667.436127 129.742152,666.978286 C130.290108,666.520444 131.107048,666.591614 131.566838,667.137248 C132.026628,667.682883 131.955155,668.49636 131.407199,668.954201 Z M117.963685,572.121021 C118.195104,571.261015 119.082845,570.750649 119.946511,570.981087 C120.810177,571.211525 121.322715,572.095504 121.091296,572.95551 C120.859878,573.815515 119.972136,574.325881 119.10847,574.095443 C118.244804,573.865005 117.732266,572.981026 117.963685,572.121021 Z M131.530591,443.224866 C131.334768,444.456 130.173743,445.295959 128.937369,445.100967 C127.700994,444.905974 126.85746,443.74987 127.053283,442.518735 C127.249105,441.287601 128.41013,440.447642 129.646505,440.642635 C130.882879,440.837627 131.726413,441.993731 131.530591,443.224866 Z M19.3807045,292.171328 C18.311828,292.07821 17.5211409,291.1399 17.6146555,290.075553 C17.7081701,289.011207 18.6504742,288.223871 19.7193507,288.316989 C20.7882272,288.410108 21.5789143,289.348418 21.4853997,290.412764 C21.3918851,291.477111 20.449581,292.264447 19.3807045,292.171328 Z M44.4074013,245.10198 C44.3917965,245.992188 43.6544188,246.701248 42.7604222,246.685709 C41.8664255,246.67017 41.1543481,245.935918 41.1699529,245.04571 C41.1855577,244.155502 41.9229353,243.446443 42.816932,243.461982 C43.7109287,243.47752 44.423006,244.211773 44.4074013,245.10198 Z M99.2802067,207.83747 C99.5416258,208.68891 99.060382,209.590162 98.2053185,209.850473 C97.350255,210.110784 96.4451669,209.63158 96.1837478,208.78014 C95.9223286,207.928701 96.4035725,207.027449 97.258636,206.767138 C98.1136995,206.506826 99.0187875,206.986031 99.2802067,207.83747 Z M54.4561538,179.760557 C55.0274228,179.3319 55.8395025,179.445546 56.2699846,180.014394 C56.7004667,180.583242 56.5863363,181.39188 56.0150673,181.820538 C55.4437983,182.249195 54.6317186,182.135548 54.2012365,181.566701 C53.7707545,180.997853 53.8848848,180.189215 54.4561538,179.760557 Z M27.6829693,121.896474 C28.7544583,121.95239 29.5775496,122.862652 29.5213952,123.929599 C29.4652409,124.996547 28.5511053,125.81615 27.4796164,125.760234 C26.4081274,125.704317 25.585036,124.794056 25.6411904,123.727108 C25.6973448,122.66016 26.6114803,121.840558 27.6829693,121.896474 Z M1251.69195,484.163188 C1250.0724,482.761305 1249.90079,480.317518 1251.30864,478.704837 C1252.71649,477.092155 1255.17068,476.921269 1256.79022,478.323152 C1258.40977,479.725034 1258.58138,482.168821 1257.17353,483.781503 C1255.76568,485.394185 1253.31149,485.565071 1251.69195,484.163188 Z M1228.09642,377.9694 C1228.94929,376.610303 1230.74714,376.196997 1232.11202,377.046255 C1233.4769,377.895513 1233.89197,379.685739 1233.0391,381.044836 C1232.18622,382.403933 1230.38838,382.817239 1229.0235,381.967981 C1227.65861,381.118723 1227.24355,379.328497 1228.09642,377.9694 Z M1228.9921,278.3411 C1230.03246,276.472192 1232.39734,275.796948 1234.2742,276.832901 C1236.15107,277.868853 1236.82918,280.223709 1235.78882,282.092617 C1234.74846,283.961525 1232.38358,284.636769 1230.50672,283.600817 C1228.62986,282.564864 1227.95174,280.210008 1228.9921,278.3411 Z M1169.05645,252.586793 C1169.49895,250.678241 1171.41144,249.48825 1173.32812,249.928874 C1175.24479,250.369498 1176.43985,252.273882 1175.99735,254.182434 C1175.55485,256.090987 1173.64236,257.280978 1171.72568,256.840354 C1169.80901,256.39973 1168.61395,254.495346 1169.05645,252.586793 Z M1212.47141,90.1243945 C1214.59644,90.4217829 1216.07702,92.378244 1215.77836,94.4942725 C1215.47971,96.6103011 1213.51492,98.0846003 1211.38988,97.7872118 C1209.26485,97.4898234 1207.78427,95.5333624 1208.08293,93.4173338 C1208.38158,91.3013052 1210.34637,89.8270061 1212.47141,90.1243945 Z M1059.16808,695.328277 C1060.62673,696.005572 1061.25781,697.732084 1060.57763,699.18455 C1059.89745,700.637015 1058.16359,701.265414 1056.70494,700.588118 C1055.24629,699.910823 1054.61522,698.18431 1055.2954,696.731845 C1055.97558,695.27938 1057.70944,694.650981 1059.16808,695.328277 Z M1064.42829,673.710948 C1062.69145,672.791368 1062.03211,670.643882 1062.9556,668.914404 C1063.87909,667.184925 1066.03572,666.528373 1067.77256,667.447953 C1069.5094,668.367533 1070.16875,670.515019 1069.24525,672.244497 C1068.32176,673.973976 1066.16513,674.630528 1064.42829,673.710948 Z M1056.95717,647.473224 C1056.178,646.278496 1056.519,644.681015 1057.71881,643.90515 C1058.91862,643.129285 1060.5229,643.46884 1061.30207,644.663568 C1062.08124,645.858295 1061.74024,647.455776 1060.54043,648.231641 C1059.34061,649.007507 1057.73633,648.667952 1056.95717,647.473224 Z M1111.9054,442.57808 C1112.80539,441.249449 1114.61662,440.898873 1115.95091,441.795046 C1117.28519,442.691218 1117.63726,444.494778 1116.73727,445.823408 C1115.83729,447.152039 1114.02605,447.502615 1112.69177,446.606442 C1111.35748,445.71027 1111.00541,443.906711 1111.9054,442.57808 Z M1013.82405,418.582859 C1013.86463,420.8974 1012.01322,422.806456 1009.68883,422.846857 C1007.36444,422.887257 1005.44726,421.043703 1005.40669,418.729162 C1005.36612,416.414622 1007.21752,414.505566 1009.54191,414.465165 C1011.8663,414.424765 1013.78348,416.268319 1013.82405,418.582859 Z M1023.31503,229.723006 C1021.38629,230.659728 1019.06015,229.862166 1018.11944,227.941601 C1017.17873,226.021037 1017.97969,223.704748 1019.90842,222.768026 C1021.83716,221.831304 1024.16331,222.628866 1025.10402,224.549431 C1026.04473,226.469996 1025.24377,228.786284 1023.31503,229.723006 Z M1057.34988,195.081324 C1057.34988,197.04008 1055.75524,198.627965 1053.78814,198.627965 C1051.82105,198.627965 1050.22641,197.04008 1050.22641,195.081324 C1050.22641,193.122569 1051.82105,191.534684 1053.78814,191.534684 C1055.75524,191.534684 1057.34988,193.122569 1057.34988,195.081324 Z M985.306251,79.8573153 C985.772013,78.5103774 987.246144,77.7944429 988.598815,78.2582308 C989.951485,78.7220187 990.670467,80.189902 990.204705,81.5368398 C989.738943,82.8837777 988.264812,83.5997122 986.912142,83.1359243 C985.559471,82.6721364 984.840489,81.2042531 985.306251,79.8573153 Z M888.887668,629.407719 C890.854461,629.373534 892.476692,630.933465 892.511022,632.891922 C892.545353,634.850379 890.978783,636.465735 889.01199,636.49992 C887.045197,636.534105 885.422966,634.974174 885.388636,633.015717 C885.354305,631.05726 886.920875,629.441904 888.887668,629.407719 Z M928.05689,409.495315 C925.933129,410.436866 923.444954,409.485793 922.499394,407.371034 C921.553835,405.256274 922.508956,402.778644 924.632717,401.837092 C926.756478,400.895541 929.244653,401.846614 930.190212,403.961373 C931.135771,406.076133 930.18065,408.553763 928.05689,409.495315 Z M860.386833,190.942454 C860.852595,192.289392 860.133613,193.757276 858.780942,194.221063 C857.428271,194.684851 855.95414,193.968917 855.488379,192.621979 C855.022617,191.275041 855.741598,189.807158 857.094269,189.34337 C858.44694,188.879582 859.921071,189.595517 860.386833,190.942454 Z M653.162732,636.325726 C655.123126,637.19485 656.004776,639.481893 655.131952,641.433979 C654.259128,643.386065 651.962351,644.263979 650.001957,643.394854 C648.041562,642.525729 647.159912,640.238686 648.032736,638.286601 C648.90556,636.334515 651.202337,635.456601 653.162732,636.325726 Z M653.091945,322.749386 C653.260178,321.155548 654.694118,319.999287 656.29474,320.166806 C657.895363,320.334326 659.056544,321.762188 658.888312,323.356027 C658.72008,324.949866 657.28614,326.106126 655.685517,325.938607 C654.084895,325.771088 652.923713,324.343225 653.091945,322.749386 Z M727.745564,118.960325 C729.153211,118.18336 730.92687,118.689793 731.707141,120.091474 C732.487413,121.493156 731.978824,123.259297 730.571177,124.036262 C729.16353,124.813226 727.389871,124.306793 726.6096,122.905112 C725.829328,121.503431 726.337917,119.737289 727.745564,118.960325 Z M600.436681,672.828727 C599.709328,671.201988 600.444037,669.296119 602.077699,668.571849 C603.711361,667.847578 605.625342,668.579173 606.352695,670.205911 C607.080048,671.832649 606.34534,673.738518 604.711677,674.462789 C603.078015,675.18706 601.164034,674.455465 600.436681,672.828727 Z M626.616864,634.579665 C625.648279,635.859572 623.8211,636.115277 622.535744,635.150798 C621.250389,634.186318 620.993596,632.366883 621.96218,631.086975 C622.930765,629.807067 624.757944,629.551362 626.0433,630.515842 C627.328655,631.480322 627.585448,633.299757 626.616864,634.579665 Z M615.577419,381.572866 C616.189042,383.246164 615.322611,385.096357 613.642191,385.705387 C611.961771,386.314418 610.103703,385.451659 609.49208,383.778361 C608.880457,382.105063 609.746888,380.25487 611.427308,379.645839 C613.107728,379.036808 614.965796,379.899567 615.577419,381.572866 Z M613.770019,51.9055887 C614.049496,53.4838594 612.991169,54.9889005 611.406181,55.2671922 C609.821193,55.5454839 608.309746,54.4916427 608.03027,52.9133721 C607.750793,51.3351015 608.80912,49.8300603 610.394108,49.5517686 C611.979096,49.2734769 613.490543,50.3273181 613.770019,51.9055887 Z M462.214516,449.03688 C462.707429,447.325174 464.500532,446.335454 466.219523,446.826277 C467.938514,447.317101 468.932447,449.102604 468.439535,450.81431 C467.946622,452.526016 466.153519,453.515737 464.434528,453.024913 C462.715537,452.534089 461.721604,450.748586 462.214516,449.03688 Z M406.494595,388.927708 C406.522684,390.530082 405.240945,391.851737 403.631751,391.879706 C402.022557,391.907676 400.695277,390.631369 400.667188,389.028995 C400.6391,387.426621 401.920839,386.104967 403.530033,386.076997 C405.139227,386.049028 406.466507,387.325335 406.494595,388.927708 Z M451.241411,285.346922 C450.446301,287.522209 448.030813,288.643796 445.846267,287.852056 C443.66172,287.060316 442.53536,284.655065 443.330469,282.479778 C444.125579,280.30449 446.541068,279.182903 448.725614,279.974643 C450.91016,280.766383 452.036521,283.171634 451.241411,285.346922 Z M409.533995,181.227898 C410.707203,179.883997 412.75236,179.741592 414.101981,180.909827 C415.451602,182.078063 415.594613,184.114552 414.421406,185.458453 C413.248198,186.802355 411.203041,186.94476 409.853419,185.776524 C408.503798,184.608289 408.360787,182.5718 409.533995,181.227898 Z M375.421434,119.067022 C373.296399,118.769633 371.815825,116.813172 372.114479,114.697144 C372.413134,112.581115 374.377922,111.106816 376.502957,111.404205 C378.627992,111.701593 380.108566,113.658054 379.809912,115.774083 C379.511257,117.890111 377.546469,119.36441 375.421434,119.067022 Z M364.726771,64.8734369 C363.803635,63.560649 364.124039,61.751246 365.442414,60.8320221 C366.76079,59.9127982 368.577894,60.2318448 369.50103,61.5446326 C370.424167,62.8574204 370.103762,64.6668234 368.785387,65.5860473 C367.467012,66.5052712 365.649907,66.1862247 364.726771,64.8734369 Z M305.414009,219.018819 C305.937991,217.503514 307.596389,216.698088 309.118143,217.219849 C310.639898,217.741611 311.448752,219.39298 310.92477,220.908285 C310.400788,222.42359 308.742391,223.229016 307.220636,222.707255 C305.698882,222.185493 304.890027,220.534125 305.414009,219.018819 Z M286.53394,187.682058 C288.317849,187.806272 289.66287,189.346983 289.538127,191.123332 C289.413383,192.899681 287.866115,194.239001 286.082205,194.114787 C284.298295,193.990572 282.953275,192.449861 283.078018,190.673512 C283.202762,188.897163 284.75003,187.557843 286.53394,187.682058 Z M264.175964,132.946719 C262.800771,132.55406 262.005625,131.125657 262.399955,129.756293 C262.794285,128.386928 264.228767,127.595151 265.60396,127.98781 C266.979153,128.380469 267.7743,129.808872 267.379969,131.178237 C266.985639,132.547601 265.551157,133.339378 264.175964,132.946719 Z M41.2038777,616.019142 C39.9842834,617.321454 37.9353811,617.3927 36.6275264,616.178274 C35.3196716,614.963849 35.2481224,612.92363 36.4677167,611.621319 C37.6873109,610.319007 39.7362132,610.247761 41.044068,611.462186 C42.3519227,612.676612 42.423472,614.71683 41.2038777,616.019142 Z M75.5638884,537.728304 C75.5638884,536.125686 76.8685966,534.826507 78.4780358,534.826507 C80.0874749,534.826507 81.3921831,536.125686 81.3921831,537.728304 C81.3921831,539.330922 80.0874749,540.6301 78.4780358,540.6301 C76.8685966,540.6301 75.5638884,539.330922 75.5638884,537.728304 Z M9.24417444,508.177862 C9.16930197,509.600459 7.95045458,510.693263 6.5218026,510.618708 C5.09315063,510.544153 3.99569551,509.330471 4.07056799,507.907874 C4.14544047,506.485277 5.36428786,505.392473 6.79293983,505.467028 C8.2215918,505.541583 9.31904692,506.755265 9.24417444,508.177862 Z M120.733994,310.887003 C119.905072,309.513292 120.351451,307.730552 121.731009,306.905142 C123.110568,306.079733 124.900896,306.52422 125.729818,307.897932 C126.558741,309.271644 126.112362,311.054383 124.732803,311.879793 C123.353244,312.705202 121.562917,312.260715 120.733994,310.887003 Z M48.3307252,153.204588 C47.8981045,151.476795 48.9540105,149.726921 50.689157,149.296134 C52.4243036,148.865347 54.1816262,149.916777 54.6142468,151.64457 C55.0468674,153.372363 53.9909615,155.122237 52.2558149,155.553024 C50.5206684,155.983812 48.7633458,154.932381 48.3307252,153.204588 Z M96.289965,51.3094874 C98.1098074,50.1771432 100.506935,50.7282181 101.644098,52.5403476 C102.781262,54.3524772 102.227842,56.7394447 100.407999,57.8717889 C98.5881568,59.0041331 96.1910297,58.4530582 95.053866,56.6409287 C93.9167022,54.8287992 94.4701226,52.4418316 96.289965,51.3094874 Z M1167.08626,634.236895 C1164.88897,632.704855 1164.35496,629.689183 1165.89353,627.501203 C1167.43209,625.313224 1170.46059,624.781479 1172.65789,626.313519 C1174.85518,627.845559 1175.38919,630.861231 1173.85062,633.049211 C1172.31206,635.23719 1169.28356,635.768934 1167.08626,634.236895 Z M1137.35865,617.714516 C1134.26447,616.831033 1132.47539,613.617128 1133.36263,610.536057 C1134.24988,607.454987 1137.47746,605.67349 1140.57165,606.556972 C1143.66583,607.440455 1145.45491,610.654361 1144.56767,613.735431 C1143.68042,616.816502 1140.45284,618.597999 1137.35865,617.714516 Z M1203.85992,578.481022 C1202.69755,580.485777 1200.12316,581.172658 1198.10988,580.015211 C1196.09659,578.857765 1195.40678,576.294293 1196.56916,574.289538 C1197.73153,572.284782 1200.30591,571.597902 1202.3192,572.755348 C1204.33249,573.912794 1205.02229,576.476266 1203.85992,578.481022 Z M1222.39323,543.514285 C1221.27526,540.891676 1222.50407,537.863179 1225.13784,536.749947 C1227.77161,535.636716 1230.813,536.860308 1231.93097,539.482917 C1233.04894,542.105526 1231.82013,545.134024 1229.18636,546.247255 C1226.55259,547.360487 1223.5112,546.136894 1222.39323,543.514285 Z M1167.79343,323.605676 C1165.7408,324.692452 1163.19206,323.916527 1162.10066,321.872598 C1161.00926,319.828669 1161.78849,317.290731 1163.84112,316.203955 C1165.89375,315.117178 1168.44249,315.893104 1169.53389,317.937033 C1170.62529,319.980962 1169.84606,322.5189 1167.79343,323.605676 Z M1182.58946,217.205221 C1181.84892,214.453203 1183.48904,211.62447 1186.25277,210.887069 C1189.0165,210.149668 1191.85727,211.782838 1192.59781,214.534856 C1193.33835,217.286874 1191.69823,220.115607 1188.9345,220.853008 C1186.17077,221.590409 1183.33,219.957239 1182.58946,217.205221 Z M1275.23047,197.987178 C1271.91984,198.748256 1268.61645,196.692817 1267.85214,193.396226 C1267.08782,190.099635 1269.15201,186.810245 1272.46263,186.049167 C1275.77325,185.288089 1279.07664,187.343528 1279.84096,190.640119 C1280.60528,193.936709 1278.54109,197.2261 1275.23047,197.987178 Z M1207.42704,26.8712184 C1209.44033,25.713772 1212.01471,26.4006521 1213.17708,28.405408 C1214.33945,30.4101638 1213.64965,32.9736352 1211.63636,34.1310815 C1209.62307,35.2885279 1207.04869,34.6016478 1205.88632,32.5968919 C1204.72395,30.5921361 1205.41375,28.0286647 1207.42704,26.8712184 Z M1093.14411,571.341139 C1092.6664,568.893981 1094.27141,566.524552 1096.72898,566.048873 C1099.18656,565.573193 1101.56607,567.171393 1102.04377,569.618552 C1102.52148,572.06571 1100.91647,574.435139 1098.4589,574.910818 C1096.00133,575.386498 1093.62181,573.788298 1093.14411,571.341139 Z M1048.71344,501.992233 C1048.66039,498.965527 1051.08145,496.469069 1054.12104,496.416237 C1057.16063,496.363406 1059.66771,498.774208 1059.72077,501.800914 C1059.77382,504.82762 1057.35276,507.324079 1054.31317,507.37691 C1051.27358,507.429742 1048.7665,505.01894 1048.71344,501.992233 Z M1097.61413,486.726013 C1096.44538,484.933922 1096.95688,482.5377 1098.7566,481.373902 C1100.55632,480.210104 1102.96274,480.719437 1104.13149,482.511528 C1105.30024,484.30362 1104.78874,486.699841 1102.98902,487.863639 C1101.1893,489.027437 1098.78288,488.518104 1097.61413,486.726013 Z M943.645619,473.966778 C943.365076,477.159817 940.538163,479.521825 937.331534,479.24247 C934.124904,478.963115 931.752843,476.148184 932.033387,472.955145 C932.31393,469.762106 935.140843,467.400098 938.347472,467.679453 C941.554102,467.958807 943.926163,470.773739 943.645619,473.966778 Z M942.261209,454.971835 C939.589018,455.204631 937.233258,453.236291 936.999471,450.575425 C936.765685,447.914559 938.742402,445.568783 941.414594,445.335987 C944.086785,445.103192 946.442545,447.071532 946.676332,449.732397 C946.910118,452.393263 944.9334,454.73904 942.261209,454.971835 Z M954.142541,390.487069 C952.884825,387.536634 954.267225,384.129574 957.230219,382.877189 C960.193212,381.624803 963.614772,383.001345 964.872488,385.95178 C966.130204,388.902215 964.747804,392.309275 961.784811,393.56166 C958.821818,394.814045 955.400257,393.437504 954.142541,390.487069 Z M940.219997,340.266437 C943.451406,341.311936 945.219829,344.767953 944.169881,347.985667 C943.119932,351.203381 939.649206,352.964309 936.417797,351.91881 C933.186387,350.873312 931.417964,347.417295 932.467912,344.199581 C933.517861,340.981867 936.988587,339.220939 940.219997,340.266437 Z M938.988292,321.793992 C941.416186,319.972197 944.867524,320.455196 946.697073,322.872799 C948.526622,325.290402 948.041568,328.727113 945.613675,330.548908 C943.185781,332.370703 939.734443,331.887705 937.904894,329.470101 C936.075345,327.052498 936.560399,323.615787 938.988292,321.793992 Z M825.685616,280.085119 C824.249684,277.018804 825.581951,273.373945 828.661317,271.944098 C831.740683,270.514252 835.401056,271.840872 836.836988,274.907188 C838.27292,277.973503 836.940654,281.618362 833.861287,283.048209 C830.781921,284.478055 827.121548,283.151435 825.685616,280.085119 Z M924.514862,249.6545 C927.369118,249.853244 929.52115,252.318381 929.321561,255.16054 C929.121972,258.002698 926.646342,260.14561 923.792087,259.946866 C920.937831,259.748123 918.785799,257.282986 918.985388,254.440827 C919.184977,251.598669 921.660607,249.455757 924.514862,249.6545 Z M891.658288,119.702859 C892.30626,117.294844 894.791936,115.86582 897.210201,116.511046 C899.628466,117.156272 901.063572,119.631413 900.4156,122.039429 C899.767627,124.447445 897.281951,125.876468 894.863686,125.231242 C892.445422,124.586016 891.010316,122.110875 891.658288,119.702859 Z M864.986154,77.9071135 C867.991236,76.7584597 871.362467,78.2530671 872.51601,81.2454127 C873.669553,84.2377583 872.168584,87.5947017 869.163502,88.7433555 C866.158421,89.8920094 862.787189,88.3974019 861.633646,85.4050563 C860.480104,82.4127107 861.981072,79.0557674 864.986154,77.9071135 Z M845.422986,74.2999739 C842.438789,74.8775846 839.54938,72.9369136 838.969311,69.9653639 C838.389242,66.9938141 840.338173,64.1166511 843.32237,63.5390403 C846.306567,62.9614296 849.195976,64.9021005 849.776046,67.8736503 C850.356115,70.8452 848.407184,73.7223631 845.422986,74.2999739 Z M841.161622,39.4518387 C839.734404,42.1246688 836.401436,43.1393406 833.71723,41.7181716 C831.033024,40.2970026 830.014033,36.9781606 831.441251,34.3053305 C832.868469,31.6325004 836.201437,30.6178286 838.885643,32.0389976 C841.569849,33.4601665 842.58884,36.7790086 841.161622,39.4518387 Z M705.454038,406.944851 C708.789317,406.299286 712.018657,408.468271 712.666969,411.789415 C713.315282,415.110559 711.137065,418.326212 707.801785,418.971777 C704.466506,419.617342 701.237166,417.448356 700.588854,414.127213 C699.940541,410.806069 702.118758,407.590416 705.454038,406.944851 Z M778.930727,144.682713 C782.315502,144.387839 785.299465,146.881069 785.595595,150.251499 C785.891724,153.621929 783.387882,156.593246 780.003106,156.88812 C776.618331,157.182995 773.634368,154.689764 773.338238,151.319334 C773.042109,147.948904 775.545951,144.977587 778.930727,144.682713 Z M682.764435,68.741234 C680.447205,71.2156264 676.554291,71.3509938 674.069367,69.0435856 C671.584443,66.7361773 671.448499,62.859762 673.765729,60.3853696 C676.082958,57.9109772 679.975872,57.7756098 682.460796,60.0830181 C684.94572,62.3904263 685.081664,66.2668416 682.764435,68.741234 Z M655.533903,32.1945948 C652.897152,34.0330426 649.262943,33.3949495 647.416671,30.7693738 C645.570398,28.1437982 646.211207,24.5249922 648.847958,22.6865443 C651.484708,20.8480965 655.118917,21.4861896 656.96519,24.1117653 C658.811462,26.7373409 658.170653,30.3561469 655.533903,32.1945948 Z M494.580953,697.803059 C497.6136,698.014224 499.900134,700.633432 499.688071,703.653226 C499.476007,706.673019 496.845651,708.949863 493.813004,708.738698 C490.780358,708.527534 488.493824,705.908325 488.705887,702.888531 C488.91795,699.868738 491.548307,697.591895 494.580953,697.803059 Z M511.40199,570.055965 C512.310341,572.186835 511.311941,574.647489 509.172001,575.55199 C507.032062,576.45649 504.560934,575.462322 503.652584,573.331452 C502.744234,571.200582 503.742634,568.739928 505.882573,567.835427 C508.022513,566.930927 510.49364,567.925095 511.40199,570.055965 Z M562.570386,96.9829521 C563.970366,94.9161934 566.787844,94.3708524 568.863399,95.7648986 C570.938954,97.1589449 571.486616,99.9644816 570.086637,102.03124 C568.686657,104.097999 565.869179,104.64334 563.793624,103.249294 C561.718069,101.855247 561.170406,99.0497107 562.570386,96.9829521 Z M416.386639,696.239691 C416.862208,693.249793 419.68184,691.209893 422.684464,691.683446 C425.687088,692.156999 427.73567,694.964681 427.260101,697.954579 C426.784533,700.944477 423.9649,702.984377 420.962277,702.510824 C417.959653,702.037271 415.91107,699.229589 416.386639,696.239691 Z M461.766407,674.857859 C464.750604,674.280248 467.640013,676.220919 468.220082,679.192469 C468.800151,682.164019 466.85122,685.041182 463.867023,685.618792 C460.882826,686.196403 457.993417,684.255732 457.413347,681.284183 C456.833278,678.312633 458.782209,675.43547 461.766407,674.857859 Z M410.465671,475.621421 C409.962128,472.455647 412.131215,469.482808 415.310464,468.981398 C418.489713,468.479989 421.475205,470.639883 421.978749,473.805657 C422.482292,476.971432 420.313205,479.944271 417.133956,480.445681 C413.954708,480.94709 410.969215,478.787196 410.465671,475.621421 Z M186.159791,637.968275 C183.24739,636.225744 182.305034,632.462182 184.054982,629.562124 C185.804929,626.662066 189.58451,625.723705 192.496911,627.466235 C195.409313,629.208766 196.351668,632.972328 194.601721,635.872386 C192.851773,638.772444 189.072193,639.710806 186.159791,637.968275 Z M297.857537,603.467331 C296.529948,606.58168 292.918301,608.034696 289.790697,606.712733 C286.663093,605.390771 285.203893,601.79443 286.531482,598.680082 C287.859071,595.565733 291.470718,594.112717 294.598322,595.43468 C297.725926,596.756642 299.185126,600.352983 297.857537,603.467331 Z M66.3989688,701.481655 C64.6199214,702.676552 62.2049404,702.209116 61.0049578,700.437609 C59.8049752,698.666102 60.2744,696.261356 62.0534474,695.066459 C63.8324947,693.871562 66.2474757,694.338997 67.4474583,696.110505 C68.6474409,697.882012 68.1780161,700.286758 66.3989688,701.481655 Z M38.5766132,646.86621 C39.7824262,649.838053 38.340522,653.22057 35.35603,654.421272 C32.371538,655.621975 28.9746246,654.186182 27.7688116,651.214339 C26.5629986,648.242496 28.0049028,644.859979 30.9893947,643.659277 C33.9738867,642.458574 37.3708001,643.894367 38.5766132,646.86621 Z M15.2170902,371.711224 C15.8119724,374.498063 14.0254246,377.237446 11.2267241,377.829807 C8.42802357,378.422168 5.67698125,376.643192 5.0820991,373.856353 C4.48721694,371.069514 6.27376471,368.330131 9.07246523,367.73777 C11.8711657,367.145409 14.6222081,368.924385 15.2170902,371.711224 Z M0.307621749,101.006621 C-0.56324322,98.8602902 0.478132026,96.4173615 2.63359846,95.5501875 C4.7890649,94.6830134 7.24239124,95.7199751 8.1132562,97.8663062 C8.98412117,100.012637 7.94274593,102.455566 5.78727949,103.32274 C3.63181306,104.189914 1.17848672,103.152952 0.307621749,101.006621 Z M29.2843262,32.6594365 C30.2017605,35.1693837 28.9021136,37.9446733 26.3814834,38.8582194 C23.8608533,39.7717654 21.0737513,38.4776266 20.1563169,35.9676794 C19.2388826,33.4577323 20.5385296,30.6824426 23.0591597,29.7688966 C25.5797899,28.8553505 28.3668919,30.1494893 29.2843262,32.6594365 Z" id="Snow"></path>
                </g>
            </g>
        </g>
    </g>
</svg>