<?xml version="1.0" encoding="UTF-8"?>
<svg width="184px" height="142px" viewBox="0 0 184 142" version="1.1" xmlns="http://www.w3.org/2000/svg" xmlns:xlink="http://www.w3.org/1999/xlink">
    <!-- Generator: Sketch 52.5 (67469) - http://www.bohemiancoding.com/sketch -->
    <title>Tree</title>
    <desc>Created with Sketch.</desc>
    <g id="Main" stroke="none" stroke-width="1" fill="none" fill-rule="evenodd">
        <g id="000-Home" transform="translate(-10.000000, -3249.000000)" fill-rule="nonzero">
            <g id="Price" transform="translate(0.000000, 2670.000000)">
                <g id="bg">
                    <g id="Tree" transform="translate(10.000000, 579.000000)">
                        <path d="M183.21085,141.432836 L110.537313,141.432836 C116.087784,138.246892 119.387987,136.338282 120.437922,135.707007 C122.012823,134.760094 127.530075,131.449133 125.392511,131.251323 C121.151142,130.858826 115.511187,129.791005 115.511187,128.386282 C115.511187,127.727963 118.274011,126.731823 122.54586,124.153537 C123.749203,123.427256 125.726594,121.959054 128.478033,119.748932 C126.704674,119.27907 124.262377,118.576101 121.151142,117.640023 C118.039908,116.703946 117.565039,115.717946 119.726537,114.682023 C122.856751,112.813513 125.137221,111.490104 126.567948,110.711795 C127.998675,109.933485 129.181969,108.82526 130.117829,107.38712 C127.496768,106.908145 125.278334,106.47332 123.462529,106.082647 C121.646724,105.691973 122.290051,104.53818 125.392511,102.621266 C132.259124,98.586331 134.770805,96.3677545 132.927552,95.9655369 C131.164995,95.5809279 129.038317,94.8641105 129.055117,93.8150846 C129.058792,93.5856182 130.204919,92.3761048 132.493497,90.1865447 C140.363314,81.8801231 144.862931,77.7269123 145.992351,77.7269123 L147.755813,77.7269123 C148.885232,77.7269123 153.38485,81.8801231 161.254666,90.1865447 C163.543245,92.3761048 164.689371,93.5856182 164.693046,93.8150846 C164.709846,94.8641105 162.583168,95.5809279 160.820611,95.9655369 C158.977359,96.3677545 161.489039,98.586331 168.355652,102.621266 C171.458112,104.53818 172.10144,105.691973 170.285634,106.082647 C168.469829,106.47332 166.251396,106.908145 163.630334,107.38712 C164.566195,108.82526 165.749488,109.933485 167.180215,110.711795 C168.610943,111.490104 170.891413,112.813513 174.021626,114.682023 C176.183124,115.717946 175.708256,116.703946 172.597021,117.640023 C169.485786,118.576101 167.043489,119.27907 165.27013,119.748932 C168.021569,121.959054 169.99896,123.427256 171.202304,124.153537 C175.474152,126.731823 178.236976,127.727963 178.236976,128.386282 C178.236976,129.791005 172.597021,130.858826 168.355652,131.251323 C166.218089,131.449133 171.73534,134.760094 173.310242,135.707007 C174.360177,136.338282 177.660379,138.246892 183.21085,141.432836 Z" id="Path" fill="#7BBF6D"></path>
                        <path d="M159.180999,141.432836 L6.82121026e-13,141.432836 C12.1575132,134.401333 19.3861357,130.188958 21.6858675,128.795709 C25.1354653,126.705836 37.2202163,119.398416 32.538188,118.961841 C23.248076,118.095587 10.8945604,115.738864 10.8945604,112.638584 C10.8945604,111.18565 16.9461316,108.987129 26.3030055,103.296753 C28.9387568,101.693823 33.2699494,98.4534443 39.2965835,93.575618 C35.412294,92.5386155 30.0627915,90.9871346 23.248076,88.9211754 C16.4333605,86.8552161 15.3932292,84.6790753 20.1276819,82.392753 C26.9839669,78.2688802 31.9790112,75.3480644 35.1128148,73.6303055 C38.2466185,71.9125466 40.8384542,69.4666511 42.8883221,66.2926189 C37.1472617,65.2355022 32.2881005,64.2758279 28.3108384,63.4135961 C24.3335763,62.5513643 25.7426928,60.0048974 32.538188,55.7741954 C47.5785234,46.8689366 53.0800004,41.9724522 49.0426189,41.0847423 C45.1819898,40.2358954 40.5238056,38.6538516 40.5606037,36.3386107 C40.568653,35.8321693 43.0790799,33.1627264 48.0918843,28.3302822 C65.3295923,9.99768734 75.1853623,0.831389925 77.6591943,0.831389925 L81.521805,0.831389925 C83.995637,0.831389925 93.851407,9.99768734 111.089115,28.3302822 C116.101919,33.1627264 118.612346,35.8321693 118.620396,36.3386107 C118.657194,38.6538516 113.999009,40.2358954 110.13838,41.0847423 C106.100999,41.9724522 111.602476,46.8689366 126.642811,55.7741954 C133.438307,60.0048974 134.847423,62.5513643 130.870161,63.4135961 C126.892899,64.2758279 122.033738,65.2355022 116.292677,66.2926189 C118.342545,69.4666511 120.934381,71.9125466 124.068184,73.6303055 C127.201988,75.3480644 132.197032,78.2688802 139.053317,82.392753 C143.78777,84.6790753 142.747639,86.8552161 135.932923,88.9211754 C129.118208,90.9871346 123.768705,92.5386155 119.884416,93.575618 C125.91105,98.4534443 130.242243,101.693823 132.877994,103.296753 C142.234868,108.987129 148.286439,111.18565 148.286439,112.638584 C148.286439,115.738864 135.932923,118.095587 126.642811,118.961841 C121.960783,119.398416 134.045534,126.705836 137.495132,128.795709 C139.794864,130.188958 147.023486,134.401333 159.180999,141.432836 Z" id="Path" fill="#ABD9A2"></path>
                    </g>
                </g>
            </g>
        </g>
    </g>
</svg>