<?xml version="1.0" encoding="UTF-8"?>
<svg width="24px" height="24px" viewBox="0 0 24 24" version="1.1" xmlns="http://www.w3.org/2000/svg" xmlns:xlink="http://www.w3.org/1999/xlink">
    <!-- Generator: Sketch 52.6 (67491) - http://www.bohemiancoding.com/sketch -->
    <title>Close</title>
    <desc>Created with Sketch.</desc>
    <g id="m-Main" stroke="none" stroke-width="1" fill="none" fill-rule="evenodd">
        <g id="m-003-Menu" transform="translate(-11.000000, -18.000000)" fill="#FFFFFF" fill-rule="nonzero">
            <path d="M24.4621474,30 L34.6971794,19.7649681 C35.1009402,19.3612072 35.1009402,18.7065815 34.6971794,18.3028206 C34.2934185,17.8990598 33.6387928,17.8990598 33.2350319,18.3028206 L23,28.5378526 L12.7649681,18.3028206 C12.3612072,17.8990598 11.7065815,17.8990598 11.3028206,18.3028206 C10.8990598,18.7065815 10.8990598,19.3612072 11.3028206,19.7649681 L21.5378526,30 L11.3028206,40.2350319 C10.8990598,40.6387928 10.8990598,41.2934185 11.3028206,41.6971794 C11.7065815,42.1009402 12.3612072,42.1009402 12.7649681,41.6971794 L23,31.4621474 L33.2350319,41.6971794 C33.6387928,42.1009402 34.2934185,42.1009402 34.6971794,41.6971794 C35.1009402,41.2934185 35.1009402,40.6387928 34.6971794,40.2350319 L24.4621474,30 Z" id="Close"></path>
        </g>
    </g>
</svg>