<svg xmlns="http://www.w3.org/2000/svg" width="100" height="25" viewBox="0 0 100 25">
    <g fill="#FFF" fill-rule="nonzero">
        <path d="M0 19.74h2.744v-5.814c.415-.46.798-.674 1.117-.674.542 0 .798.284.798 1.418v5.07h2.744v-5.814c.415-.46.798-.674 1.117-.674.542 0 .797.284.797 1.418v5.07h2.745v-5.46c0-2.197-.766-3.616-2.521-3.616-1.085 0-1.803.674-2.457 1.419-.43-.922-1.117-1.419-2.202-1.419-1.084 0-1.754.603-2.393 1.294h-.063l-.192-1.08H0v8.862zm15.427 3.333c1.978 0 2.84-1.082 3.67-3.475l2.68-8.72H19.16l-.798 3.403a70.711 70.711 0 0 0-.51 2.517h-.064c-.191-.886-.35-1.702-.574-2.517l-.957-3.404h-2.745l3.031 8.544-.095.39c-.16.532-.51.886-1.245.886-.16 0-.367-.07-.51-.106l-.479 2.304c.394.126.803.186 1.213.178zM81.65 19.953c-.925 0-1.595-.815-1.595-1.844 0-1.028.67-1.843 1.595-1.843.925 0 1.595.815 1.595 1.843 0 1.029-.67 1.844-1.595 1.844zm3.877-.213v-8.863h2.233l.191 1.525h.064c.59-1.206 1.484-1.738 2.265-1.738.495 0 .767.071.99.178l-.447 2.623c-.287-.07-.543-.141-.893-.141-.574 0-1.277.39-1.66 1.489v4.927h-2.743zm9.492.213c-1.755 0-2.49-1.418-2.49-3.616v-5.46h2.745v5.07c0 1.134.255 1.418.798 1.418.51 0 .797-.212 1.149-.78v-5.708h2.743v8.863h-2.233l-.192-1.17h-.063c-.638.851-1.372 1.383-2.457 1.383zm-65.365.127c-2.093 0-4.492-.85-6.279-2.637l2.502-3.347c1.174 1.05 2.654 1.787 3.88 1.787 1.327 0 1.888-.482 1.888-1.305 0-.879-.842-1.162-2.246-1.786l-2.068-.964c-1.786-.794-3.343-2.468-3.343-5.134 0-3.148 2.552-5.729 6.177-5.729 1.889 0 3.982.794 5.513 2.467l-2.195 3.064c-1.123-.88-2.093-1.334-3.318-1.334-1.072 0-1.736.426-1.736 1.249 0 .879.944 1.19 2.45 1.843l2.017.88c2.067.906 3.242 2.495 3.242 5.047 0 3.12-2.349 5.9-6.484 5.9zm13.299 0c-2.807 0-3.982-2.268-3.982-5.785V5.559h4.39v8.112c0 1.815.409 2.27 1.277 2.27.817 0 1.276-.342 1.837-1.25V5.56h4.39V19.74h-3.573l-.306-1.872h-.102c-1.021 1.362-2.195 2.212-3.931 2.212zm11.512 4.652V5.559h3.573l.307 1.305h.102c.944-.964 2.195-1.644 3.471-1.644 3.012 0 4.952 2.835 4.952 7.203 0 4.878-2.604 7.657-5.31 7.657-1.071 0-2.041-.51-2.858-1.417l.153 2.155v3.914h-4.39zm6.024-8.622c1.02 0 1.889-.908 1.889-3.63 0-2.326-.613-3.29-1.787-3.29-.664 0-1.174.283-1.736 1.021v5.219c.445.452 1.03.695 1.634.68zm13.35 3.97c-2.961 0-3.932-2.155-3.932-5.331V.001h4.39v14.918c0 .964.409 1.247.715 1.247.155.007.31-.012.46-.056l.51 3.573c-.46.227-1.174.397-2.144.397z"/>
    </g>
</svg>
