<?xml version="1.0" encoding="UTF-8"?>
<svg width="161px" height="36px" viewBox="0 0 161 36" version="1.1" xmlns="http://www.w3.org/2000/svg" xmlns:xlink="http://www.w3.org/1999/xlink">
    <!-- Generator: Sketch 52.5 (67469) - http://www.bohemiancoding.com/sketch -->
    <title>Logo gray</title>
    <desc>Created with Sketch.</desc>
    <g id="Main" stroke="none" stroke-width="1" fill="none" fill-rule="evenodd">
        <g id="000-Home" transform="translate(-55.000000, -4355.000000)" fill-rule="nonzero">
            <g id="Footer" transform="translate(0.000000, 4325.000000)">
                <g id="Logo-gray" transform="translate(55.000000, 30.000000)">
                    <path d="M0.000103470437,28.603885 L4.41829113,28.603885 L4.41829113,20.179322 C5.08608933,19.510903 5.7025662,19.2025611 6.21629692,19.2025611 C7.0895874,19.2025611 7.50046851,19.6143734 7.50046851,21.2574839 L7.50046851,28.603885 L11.9186562,28.603885 L11.9186562,20.179322 C12.5864544,19.510903 13.2029312,19.2025611 13.716662,19.2025611 C14.5899524,19.2025611 15.0008335,19.6143734 15.0008335,21.2574839 L15.0008335,28.603885 L19.4190212,28.603885 L19.4190212,20.6925353 C19.4190212,17.5077153 18.186171,15.4527924 15.3608072,15.4527924 C13.6142262,15.4527924 12.458358,16.4285186 11.4052359,17.5077153 C10.7119839,16.171912 9.60733355,15.4527924 7.86075257,15.4527924 C6.11417159,15.4527924 5.03538882,16.3260829 4.00792738,17.3276767 L3.90518123,17.3276767 L3.59704627,15.7611343 L0.000103470437,15.7611343 L0.000103470437,28.603885 Z M24.8374576,33.4328503 C28.0223811,33.4328503 29.4094023,31.8652731 30.7449987,28.3979788 L35.0603368,15.7611343 L30.8477449,15.7611343 L29.5634698,20.6925353 C29.2553348,21.925903 28.9984177,23.1075353 28.7416041,24.3398683 L28.638858,24.3398683 C28.3306195,23.0558001 28.0738059,21.8741677 27.7141427,20.6925353 L26.173054,15.7611343 L21.7548663,15.7611343 L26.634946,28.1413721 L26.4808785,28.7063207 C26.2240649,29.4771754 25.6589094,29.9903888 24.4774839,29.9903888 C24.2205668,29.9903888 23.8866677,29.8879531 23.6555148,29.8362179 L22.8849704,33.1752089 C23.5193981,33.3575523 24.1774466,33.4443854 24.8374576,33.4328503 Z" id="my" fill="#767676"></path>
                    <path d="M131.4565,28.9122269 C129.966526,28.9122269 128.888364,27.7305945 128.888364,26.2406202 C128.888364,24.7506459 129.966526,23.5690135 131.4565,23.5690135 C132.946474,23.5690135 134.024636,24.7506459 134.024636,26.2406202 C134.024636,27.7305945 132.946474,28.9122269 131.4565,28.9122269 Z M137.697837,28.603885 L137.697837,15.7611343 L141.293434,15.7611343 L141.601776,17.9702281 L141.704212,17.9702281 C142.655105,16.2236472 144.093344,15.4527924 145.351545,15.4527924 C146.148267,15.4527924 146.584913,15.5552281 146.943955,15.7093991 L146.224835,19.510903 C145.762323,19.4084672 145.351545,19.3060315 144.786596,19.3060315 C143.862605,19.3060315 142.731674,19.8709801 142.116024,21.4633901 L142.116024,28.603885 L137.697837,28.603885 Z M152.98042,28.9122269 C150.154643,28.9122269 148.97301,26.857304 148.97301,23.6724839 L148.97301,15.7611343 L153.391198,15.7611343 L153.391198,23.1075353 C153.391198,24.7506459 153.801976,25.1614235 154.675266,25.1614235 C155.497856,25.1614235 155.959334,24.8541163 156.525317,24.0315263 L156.525317,15.7611343 L160.94247,15.7611343 L160.94247,28.603885 L157.346873,28.603885 L157.038531,26.9080045 L156.936095,26.9080045 C155.908634,28.1413721 154.727001,28.9122269 152.98042,28.9122269 Z M47.743329,29.0964042 C44.3735039,29.0964042 40.5105386,27.8640713 37.6338535,25.275241 L41.6612333,20.4255816 C43.5516382,21.946597 45.9351832,23.014412 47.9077436,23.014412 C50.0447185,23.014412 50.9488432,22.3159865 50.9488432,21.1240071 C50.9488432,19.850286 49.5926562,19.4395084 47.3323445,18.5351767 L44.0037005,17.1383258 C41.1270154,15.9877346 38.6201337,13.5623875 38.6201337,9.69983612 C38.6201337,5.13782455 42.7295656,1.39840296 48.5652982,1.39840296 C51.6061909,1.39840296 54.9761195,2.54909769 57.4419235,4.97330656 L53.9076838,9.4121883 C52.0994344,8.13846722 50.5378586,7.48039524 48.5652982,7.48039524 C46.8392044,7.48039524 45.7707686,8.09707905 45.7707686,9.28905848 C45.7707686,10.5627796 47.2912667,11.0149454 49.7158895,11.9596305 L52.9624814,13.2343862 C56.2912288,14.5484608 58.1816337,16.850678 58.1816337,20.5487114 C58.1816337,25.0693348 54.4008239,29.0964042 47.743329,29.0964042 Z M69.1538458,29.0964042 C64.6342571,29.0964042 62.7438522,25.8091485 62.7438522,20.7132294 L62.7438522,8.05569087 L69.8119177,8.05569087 L69.8119177,19.8088978 C69.8119177,22.4391163 70.468955,23.0971883 71.8668406,23.0971883 C73.1819499,23.0971883 73.9217635,22.6036343 74.8250604,21.2885251 L74.8250604,8.05569087 L81.8941607,8.05569087 L81.8941607,28.603885 L76.1401697,28.603885 L75.6476504,25.8908901 L75.4831324,25.8908901 C73.8389871,27.8640713 71.9485823,29.0964042 69.1538458,29.0964042 Z M87.6885051,35.8364685 L87.6885051,8.05569087 L93.4414614,8.05569087 L93.9350154,9.94609576 L94.0995334,9.94609576 C95.6195141,8.54924486 97.6330488,7.56317159 99.6879717,7.56317159 C104.537631,7.56317159 107.660369,11.6719826 107.660369,18.0012693 C107.660369,25.0693348 103.468781,29.0964042 99.1126761,29.0964042 C97.3867892,29.0964042 95.8254203,28.3565906 94.5103111,27.0425161 L94.7565707,30.1652539 L94.7565707,35.8364685 L87.6885051,35.8364685 Z M97.3867892,23.3434479 C99.0309344,23.3434479 100.427785,22.0283387 100.427785,18.0830109 C100.427785,14.7129788 99.4417121,13.3161279 97.5513072,13.3161279 C96.4824576,13.3161279 95.6609023,13.7269055 94.7565707,14.7957551 L94.7565707,22.3573747 C95.473617,23.0125063 96.4157812,23.3657252 97.3867892,23.3434479 Z M118.879668,29.0964042 C114.112785,29.0964042 112.550382,25.9736665 112.550382,21.3713014 L112.550382,0.00113817481 L119.619482,0.00113817481 L119.619482,21.6175611 C119.619482,23.014412 120.276519,23.4251896 120.770073,23.4251896 C121.019348,23.4342534 121.268604,23.4067132 121.509887,23.3434479 L122.331442,28.5211086 C121.591629,28.8501446 120.441037,29.0964042 118.879668,29.0964042 Z" id="Combined-Shape" fill="#C0C0C0"></path>
                </g>
            </g>
        </g>
    </g>
</svg>