<?xml version="1.0" encoding="UTF-8"?>
<svg width="180px" height="41px" viewBox="0 0 180 41" version="1.1" xmlns="http://www.w3.org/2000/svg" xmlns:xlink="http://www.w3.org/1999/xlink">
    <!-- Generator: Sketch 52.5 (67469) - http://www.bohemiancoding.com/sketch -->
    <title>Logo</title>
    <desc>Created with Sketch.</desc>
    <g id="Main" stroke="none" stroke-width="1" fill="none" fill-rule="evenodd">
        <g id="000-Home" transform="translate(-55.000000, -17.000000)" fill-rule="nonzero">
            <g id="Header">
                <g id="Logo" transform="translate(55.000000, 15.000000)">
                    <g transform="translate(0.000000, 2.000000)">
                        <path d="M0.000115681234,31.9794987 L4.93970437,31.9794987 L4.93970437,22.5607326 C5.68631105,21.8134319 6.37553985,21.4687018 6.94989717,21.4687018 C7.92624679,21.4687018 8.38561697,21.9291131 8.38561697,23.7661311 L8.38561697,31.9794987 L13.3252057,31.9794987 L13.3252057,22.5607326 C14.0718123,21.8134319 14.7610411,21.4687018 15.3353985,21.4687018 C16.3117481,21.4687018 16.7711183,21.9291131 16.7711183,23.7661311 L16.7711183,31.9794987 L21.7107069,31.9794987 L21.7107069,23.1345116 C21.7107069,19.5738432 20.332365,17.2764139 17.1735733,17.2764139 C15.220874,17.2764139 13.928599,18.3672879 12.7511954,19.5738432 C11.9761311,18.0803985 10.7411183,17.2764139 8.78841902,17.2764139 C6.83571979,17.2764139 5.62962725,18.2527635 4.4809126,19.3725578 L4.36604113,19.3725578 L4.02154242,17.621144 L0.000115681234,17.621144 L0.000115681234,31.9794987 Z M27.7685861,37.3783419 C31.3293702,37.3783419 32.8800771,35.6257712 34.3732905,31.7492931 L39.197892,17.621144 L34.488162,17.621144 L33.0523265,23.1345116 C32.7078278,24.5134319 32.4205913,25.8345116 32.1334704,27.2122751 L32.018599,27.2122751 C31.6739846,25.776671 31.3868638,24.4555913 30.9847558,23.1345116 L29.2617995,17.621144 L24.3222108,17.621144 L29.7782005,31.4624036 L29.6059512,32.0940231 C29.3188303,32.9558483 28.6869794,33.5296272 27.3661311,33.5296272 C27.0788946,33.5296272 26.7055913,33.4151028 26.4471594,33.3572622 L25.5856812,37.0902956 C26.2949792,37.2941578 27.0306856,37.3912383 27.7685861,37.3783419 Z" id="my" fill="#000000"></path>
                        <path d="M146.97,32.3242288 C145.30419,32.3242288 144.098792,31.0031491 144.098792,29.3373393 C144.098792,27.6715296 145.30419,26.3504499 146.97,26.3504499 C148.63581,26.3504499 149.841208,27.6715296 149.841208,29.3373393 C149.841208,31.0031491 148.63581,32.3242288 146.97,32.3242288 Z M153.947892,31.9794987 L153.947892,17.621144 L157.967815,17.621144 L158.312545,20.0909383 L158.427069,20.0909383 C159.49018,18.1382391 161.098149,17.2764139 162.504833,17.2764139 C163.395578,17.2764139 163.883753,17.3909383 164.285167,17.5633033 L163.481183,21.8134319 C162.964087,21.6989075 162.504833,21.584383 161.873213,21.584383 C160.84018,21.584383 159.575784,22.2160026 158.887481,23.9963368 L158.887481,31.9794987 L153.947892,31.9794987 Z M171.03401,32.3242288 C167.874756,32.3242288 166.553676,30.0267995 166.553676,26.4661311 L166.553676,17.621144 L171.493265,17.621144 L171.493265,25.8345116 C171.493265,27.6715296 171.952519,28.1307841 172.928869,28.1307841 C173.848535,28.1307841 174.364473,27.7872108 174.997249,26.867545 L174.997249,17.621144 L179.935681,17.621144 L179.935681,31.9794987 L175.915758,31.9794987 L175.571028,30.0834833 L175.456504,30.0834833 C174.307789,31.4624036 172.98671,32.3242288 171.03401,32.3242288 Z M53.377635,32.5301414 C49.6101285,32.5301414 45.2912853,31.1523779 42.0751157,28.2580334 L46.5777763,22.836054 C48.6912725,24.5365681 51.3561054,25.7303985 53.5614524,25.7303985 C55.950617,25.7303985 56.9614396,24.9495501 56.9614396,23.6169023 C56.9614396,22.1928663 55.4452057,21.7336118 52.9181491,20.7225578 L49.1966838,19.1608612 C45.9805141,17.8744859 43.1777892,15.1629177 43.1777892,10.8445373 C43.1777892,5.74415167 47.7721851,1.56343188 54.2966067,1.56343188 C57.6963625,1.56343188 61.4639846,2.84992288 64.2207841,5.56021851 L60.2694602,10.5229434 C58.2478149,9.09890746 56.5019537,8.36317481 54.2966067,8.36317481 C52.3668123,8.36317481 51.1722879,9.05263496 51.1722879,10.3852828 C51.1722879,11.8093188 52.8722237,12.3148458 55.582982,13.3710154 L59.2127121,14.7962082 C62.9342931,16.2653599 65.0477892,18.8392674 65.0477892,22.9737147 C65.0477892,28.0278278 60.8207969,32.5301414 53.377635,32.5301414 Z M77.3148586,32.5301414 C72.2619023,32.5301414 70.1484062,28.8549486 70.1484062,23.1576478 L70.1484062,9.00636247 L78.0505913,9.00636247 L78.0505913,22.1465938 C78.0505913,25.0872108 78.7851671,25.8229434 80.3480206,25.8229434 C81.818329,25.8229434 82.6454499,25.271144 83.655347,23.8008355 L83.655347,9.00636247 L91.5586889,9.00636247 L91.5586889,31.9794987 L85.1256555,31.9794987 L84.5750129,28.9463368 L84.3910797,28.9463368 C82.5529049,31.1523779 80.4394087,32.5301414 77.3148586,32.5301414 Z M98.036838,40.065617 L98.036838,9.00636247 L104.468715,9.00636247 L105.020514,11.1198586 L105.204447,11.1198586 C106.903805,9.55816195 109.154961,8.45571979 111.452391,8.45571979 C116.87437,8.45571979 120.36563,13.0494216 120.36563,20.1256427 C120.36563,28.0278278 115.679383,32.5301414 110.809203,32.5301414 C108.87964,32.5301414 107.13401,31.7030206 105.663702,30.2338689 L105.939023,33.7251285 L105.939023,40.065617 L98.036838,40.065617 Z M108.87964,26.0982648 C110.717815,26.0982648 112.279512,24.6279563 112.279512,20.2170308 C112.279512,16.4492931 111.177069,14.8875964 109.063573,14.8875964 C107.868586,14.8875964 106.950077,15.3468509 105.939023,16.541838 L105.939023,24.9958226 C106.74069,25.7282679 107.794041,26.123171 108.87964,26.0982648 Z M132.908946,32.5301414 C127.579512,32.5301414 125.832725,29.0388817 125.832725,23.8933805 L125.832725,0.00127249357 L133.736067,0.00127249357 L133.736067,24.1687018 C133.736067,25.7303985 134.470643,26.189653 135.022442,26.189653 C135.301134,26.1997864 135.579806,26.1689961 135.849563,26.0982648 L136.768072,31.8869537 C135.940951,32.2548201 134.654576,32.5301414 132.908946,32.5301414 Z" id="Combined-Shape" fill="#FFFFFF"></path>
                    </g>
                </g>
            </g>
        </g>
    </g>
</svg>